<?xml version="1.0" encoding="utf-8"?>
<!-- Generator: Adobe Illustrator 16.0.0, SVG Export Plug-In . SVG Version: 6.00 Build 0)  -->
<!DOCTYPE svg PUBLIC "-//W3C//DTD SVG 1.0//EN" "http://www.w3.org/TR/2001/REC-SVG-20010904/DTD/svg10.dtd">
<svg version="1.0" id="Layer_1" xmlns="http://www.w3.org/2000/svg" xmlns:xlink="http://www.w3.org/1999/xlink" x="0px" y="0px"
	 width="100px" height="100px" viewBox="0 0 100 100" enable-background="new 0 0 100 100" xml:space="preserve">
<rect x="17.499" y="42.498" fill="#F4F4F4" stroke="#3E2426" stroke-width="1.5" stroke-linecap="round" stroke-linejoin="round" stroke-miterlimit="10" width="15" height="37.502"/>
<rect x="28.75" y="42.498" fill="#D3D4D5" width="3.75" height="37.502"/>
<path fill="#B1E1F3" stroke="#3E2426" stroke-width="1.5" stroke-linecap="round" stroke-linejoin="round" stroke-miterlimit="10" d="
	M32.5,56.292c-0.735-0.115-1.457-0.296-2.143-0.58c-2.207-0.915-4.762-0.985-7.144,0h0.004c-1.885,0.78-3.874,0.875-5.718,0.436V80
	h15V56.292z"/>
<path fill="#9AC5D5" d="M28.75,55.214V80h3.75V56.292c-0.735-0.115-1.457-0.296-2.143-0.58
	C29.838,55.497,29.299,55.334,28.75,55.214z"/>
<path fill="#FDBC32" stroke="#3E2426" stroke-width="1.5" stroke-linecap="round" stroke-linejoin="round" stroke-miterlimit="10" d="
	M64.714,36.88c0,1.513-1.227,2.736-2.737,2.736c-1.509,0-2.735-1.223-2.735-2.736v2.736c0,1.515-1.224,2.735-2.734,2.735
	c-1.513,0-2.735-1.221-2.735-2.735v-8.205H39.652v10.94l0,0L39.65,80.875l32.979,0.002V31.411h-7.916V36.88z"/>
<rect x="67.629" y="31.411" fill="#DAA42C" width="5.001" height="49.466"/>
<path fill="none" stroke="#3E2426" stroke-width="1.5" stroke-linecap="round" stroke-linejoin="round" stroke-miterlimit="10" d="
	M47.895,37.213l0.001,35.417L47.895,37.213z"/>
<path fill="none" stroke="#3E2426" stroke-width="1.5" stroke-linecap="round" stroke-linejoin="round" stroke-miterlimit="10" d="
	M72.63,72.633c0.002,2.277-1.843,4.123-4.12,4.122c-2.276,0-4.121-1.846-4.121-4.123h-0.002c0,2.277-1.843,4.123-4.122,4.123
	c-2.278,0-4.123-1.845-4.123-4.123c0,2.278-1.843,4.124-4.12,4.124s-4.126-1.849-4.126-4.126l0,0c0,2.277-1.845,4.123-4.122,4.126
	c-2.276-0.001-4.122-1.846-4.124-4.123c0.002,2.277,1.847,4.122,4.124,4.123c2.277-0.003,4.122-1.849,4.122-4.126l0,0
	c0,2.277,1.849,4.126,4.126,4.126s4.12-1.846,4.12-4.124c0,2.278,1.845,4.123,4.123,4.123c2.279,0,4.122-1.846,4.122-4.123h0.002
	c0,2.277,1.845,4.123,4.121,4.123C70.787,76.756,72.632,74.91,72.63,72.633z"/>
<path fill="#F4F4F4" stroke="#3E2426" stroke-width="1.5" stroke-linecap="round" stroke-linejoin="round" stroke-miterlimit="10" d="
	M68.508,85c0.002-2.28,1.843-4.122,4.122-4.123L39.65,80.875c2.278,0.002,4.125,1.847,4.125,4.124L68.508,85z"/>
<path fill="#D3D4D5" d="M65.131,80.875c-2.279,0.002-4.12,1.843-4.122,4.124h7.499c0.002-2.281,1.843-4.122,4.122-4.124H65.131z"/>
<path fill="#FDBC32" stroke="#3E2426" stroke-width="1.5" stroke-linecap="round" stroke-linejoin="round" stroke-miterlimit="10" d="
	M80.875,40.839H72.63v4.12h8.245v17.368c-0.002,2.277-1.845,4.12-4.119,4.122l-4.126-0.002v4.122l4.123,0.002
	c4.551,0.002,8.244-3.693,8.244-8.244L85,44.959C84.997,42.682,83.152,40.839,80.875,40.839z"/>
<rect x="72.63" y="40.839" fill="#DAA42C" width="2.499" height="4.12"/>
<rect x="72.63" y="66.448" fill="#DAA42C" width="2.499" height="4.122"/>
<rect x="39.652" y="31.411" fill="none" stroke="#3E2426" stroke-width="1.5" stroke-linecap="round" stroke-linejoin="round" stroke-miterlimit="10" width="14.119" height="5.802"/>
<path fill="none" stroke="#3E2426" stroke-width="1.5" stroke-linecap="round" stroke-linejoin="round" stroke-miterlimit="10" d="
	M64.714,36.88c0,0.117-0.021,0.225-0.034,0.333h7.95v-5.802h-7.916V36.88z"/>
<rect x="17.499" y="80" fill="#F4F4F4" stroke="#3E2426" stroke-width="1.5" stroke-linecap="round" stroke-linejoin="round" stroke-miterlimit="10" width="15" height="5"/>
<rect x="28.75" y="80" fill="#D3D4D5" width="3.75" height="5"/>
<path fill="none" stroke="#3E2426" stroke-width="1.5" stroke-linecap="round" stroke-linejoin="round" stroke-miterlimit="10" d="
	M27.549,80L15,33.167L27.549,80z"/>
<rect x="17.499" y="42.498" fill="none" stroke="#3E2426" stroke-width="1.5" stroke-linecap="round" stroke-linejoin="round" stroke-miterlimit="10" width="15" height="37.502"/>
<path fill="none" stroke="#3E2426" stroke-width="1.5" stroke-linecap="round" stroke-linejoin="round" stroke-miterlimit="10" d="
	M32.5,56.292c-0.735-0.115-1.457-0.296-2.143-0.58c-2.207-0.915-4.762-0.985-7.144,0h0.004c-1.885,0.78-3.874,0.875-5.718,0.436V80
	h15V56.292z"/>
<rect x="17.499" y="80" fill="none" stroke="#3E2426" stroke-width="1.5" stroke-linecap="round" stroke-linejoin="round" stroke-miterlimit="10" width="15" height="5"/>
<path fill="#FFFFFF" stroke="#3E2426" stroke-width="1.5" stroke-linecap="round" stroke-linejoin="round" stroke-miterlimit="10" d="
	M35.567,25.94v12.309c0,2.265,1.82,4.103,4.085,4.103v-10.94h14.119v8.205c0,1.515,1.223,2.735,2.735,2.735
	c1.511,0,2.734-1.221,2.734-2.735V36.88c0,1.513,1.227,2.736,2.735,2.736c1.511,0,2.737-1.223,2.737-2.736v-5.469h7.919V25.94
	c0-3.021-2.451-5.471-5.471-5.471c-1.118,0-2.155,0.338-3.021,0.915C63.311,17.73,60.055,15,56.148,15
	c-2.904,0-5.443,1.521-6.902,3.798c-0.729-0.654-1.681-1.064-2.735-1.064c-1.876,0-3.44,1.266-3.929,2.988
	c-0.493-0.15-1.004-0.252-1.542-0.252C38.018,20.469,35.569,22.918,35.567,25.94z"/>
<path fill="#DBDCDD" d="M53.771,37.115c0,1.515,1.223,2.735,2.735,2.735c1.511,0,2.734-1.221,2.734-2.735v2.501
	c0,1.515-1.224,2.735-2.734,2.735c-1.513,0-2.735-1.221-2.735-2.735V37.115z"/>
<path fill="#DBDCDD" d="M35.567,34.498v3.75c0,2.265,1.82,4.103,4.085,4.103v-3.749C37.387,38.602,35.567,36.763,35.567,34.498z"/>
<path fill="#DBDCDD" d="M67.162,20.469c-0.657,0-1.28,0.128-1.863,0.341c2.09,0.771,3.583,2.773,3.583,5.13v5.471h3.751V25.94
	C72.633,22.918,70.182,20.469,67.162,20.469z"/>
<path fill="none" stroke="#3E2426" stroke-width="1.5" stroke-linecap="round" stroke-linejoin="round" stroke-miterlimit="10" d="
	M64.141,21.384c0.131,0.589,0.215,1.191,0.215,1.82C64.355,22.576,64.271,21.973,64.141,21.384z"/>
<path fill="none" stroke="#3E2426" stroke-width="1.5" stroke-linecap="round" stroke-linejoin="round" stroke-miterlimit="10" d="
	M47.942,23.205c0-1.626,0.487-3.132,1.304-4.407C48.43,20.073,47.942,21.579,47.942,23.205z"/>
<path fill="none" stroke="#3E2426" stroke-width="1.5" stroke-linecap="round" stroke-linejoin="round" stroke-miterlimit="10" d="
	M42.406,21.837c0-0.394,0.072-0.762,0.176-1.116C42.478,21.076,42.406,21.444,42.406,21.837z"/>
<path fill="none" stroke="#3E2426" stroke-width="1.5" stroke-linecap="round" stroke-linejoin="round" stroke-miterlimit="10" d="
	M35.567,25.94v12.309c0,2.265,1.82,4.103,4.085,4.103v-10.94h14.119v8.205c0,1.515,1.223,2.735,2.735,2.735
	c1.511,0,2.734-1.221,2.734-2.735V36.88c0,1.513,1.227,2.736,2.735,2.736c1.511,0,2.737-1.223,2.737-2.736v-5.469h7.919V25.94
	c0-3.021-2.451-5.471-5.471-5.471c-1.118,0-2.155,0.338-3.021,0.915C63.311,17.73,60.055,15,56.148,15
	c-2.904,0-5.443,1.521-6.902,3.798c-0.729-0.654-1.681-1.064-2.735-1.064c-1.876,0-3.44,1.266-3.929,2.988
	c-0.493-0.15-1.004-0.252-1.542-0.252C38.018,20.469,35.569,22.918,35.567,25.94z"/>
<path fill="none" stroke="#3E2426" stroke-width="1.5" stroke-linecap="round" stroke-linejoin="round" stroke-miterlimit="10" d="
	M56.142,42.314v30.318V42.314z"/>
<path fill="none" stroke="#3E2426" stroke-width="1.5" stroke-linecap="round" stroke-linejoin="round" stroke-miterlimit="10" d="
	M64.389,38.147l-0.002,34.485L64.389,38.147z"/>
<path fill="none" stroke="#3E2426" stroke-width="1.5" stroke-linecap="round" stroke-linejoin="round" stroke-miterlimit="10" d="
	M80.875,40.839H72.63v4.12h8.245v17.368c-0.002,2.277-1.845,4.12-4.119,4.122l-4.126-0.002v4.122l4.123,0.002
	c4.551,0.002,8.244-3.693,8.244-8.244L85,44.959C84.997,42.682,83.152,40.839,80.875,40.839z"/>
<path fill="none" stroke="#3E2426" stroke-width="1.5" stroke-linecap="round" stroke-linejoin="round" stroke-miterlimit="10" d="
	M64.714,36.88c0,1.513-1.227,2.736-2.737,2.736c-1.509,0-2.735-1.223-2.735-2.736v2.736c0,1.515-1.224,2.735-2.734,2.735
	c-1.513,0-2.735-1.221-2.735-2.735v-8.205H39.652v10.94l0,0L39.65,80.875l32.979,0.002V31.411h-7.916V36.88z"/>
<path fill="none" stroke="#3E2426" stroke-width="1.5" stroke-linecap="round" stroke-linejoin="round" stroke-miterlimit="10" d="
	M68.508,85c0.002-2.28,1.843-4.122,4.122-4.123L39.65,80.875c2.278,0.002,4.125,1.847,4.125,4.124L68.508,85z"/>
</svg>
