<?xml version="1.0" encoding="UTF-8"?>
<!DOCTYPE svg PUBLIC "-//W3C//DTD SVG 1.1//EN" "http://www.w3.org/Graphics/SVG/1.1/DTD/svg11.dtd">
<!-- Creator: CorelDRAW -->
<svg xmlns="http://www.w3.org/2000/svg" xml:space="preserve" width="6.82666in" height="6.82666in" style="shape-rendering:geometricPrecision; text-rendering:geometricPrecision; image-rendering:optimizeQuality; fill-rule:evenodd; clip-rule:evenodd"
viewBox="0 0 6.82666 6.82666"
 xmlns:xlink="http://www.w3.org/1999/xlink">
 <defs>
  <style type="text/css">
   <![CDATA[
    .fil4 {fill:none}
    .fil1 {fill:#333333}
    .fil3 {fill:#F19A7B}
    .fil2 {fill:#FFD3B3}
    .fil0 {fill:#333333;fill-rule:nonzero}
   ]]>
  </style>
 </defs>
 <g id="Layer_x0020_1">
  <metadata id="CorelCorpID_0Corel-Layer"/>
  <g id="_431431000">
   <path id="_430180888" class="fil0" d="M1.18631 3.23373l4.45405 0c0.0916535,0 0.174921,0.0374409 0.235228,0.097748 0.0603071,0.060315 0.097748,0.143583 0.097748,0.235228l0 3.93701e-006c0,0.0916535 -0.0374409,0.174921 -0.097748,0.235228 -0.0603071,0.0603071 -0.143575,0.097748 -0.235228,0.097748l-4.45405 0c-0.0916535,0 -0.174921,-0.0374409 -0.235228,-0.097748 -0.0603071,-0.0603071 -0.097748,-0.143575 -0.097748,-0.235228l0 -3.93701e-006c0,-0.0916457 0.0374409,-0.174913 0.097748,-0.235228 0.0603071,-0.0603071 0.143575,-0.097748 0.235228,-0.097748zm4.45405 0.16l-4.45405 0c-0.0474843,0 -0.0907165,0.0194882 -0.122102,0.050874 -0.0313858,0.0313898 -0.050874,0.074622 -0.050874,0.122102l0 3.93701e-006c0,0.0474843 0.0194882,0.0907165 0.050874,0.122102 0.0313858,0.0313858 0.0746181,0.050874 0.122102,0.050874l4.45405 0c0.0474843,0 0.0907165,-0.0194882 0.122102,-0.050874 0.0313858,-0.0313858 0.050874,-0.0746181 0.050874,-0.122102l0 -3.93701e-006c0,-0.0474803 -0.0194882,-0.0907126 -0.050874,-0.122102 -0.0313858,-0.0313858 -0.0746181,-0.050874 -0.122102,-0.050874z"/>
   <path id="_430181464" class="fil0" d="M1.47985 3.23373l3.86696 0c0.128205,0 0.244827,-0.0525118 0.329421,-0.137102 0.0845906,-0.0845906 0.137102,-0.201213 0.137102,-0.329417 0,-0.254898 -0.104339,-0.486693 -0.272429,-0.654783 -0.168094,-0.168094 -0.399886,-0.272433 -0.654783,-0.272433l-2.94558 0c-0.254898,0 -0.486689,0.104339 -0.654783,0.272433 -0.168091,0.168091 -0.272429,0.399886 -0.272429,0.654783 0,0.128205 0.0525118,0.244827 0.137102,0.329417 0.0845945,0.0845906 0.201217,0.137102 0.329421,0.137102zm3.86696 0.16l-3.86696 0c-0.172378,0 -0.329031,-0.0704646 -0.442547,-0.183976 -0.113512,-0.113512 -0.183976,-0.270165 -0.183976,-0.442543 0,-0.299067 0.122291,-0.570898 0.319303,-0.767909 0.197016,-0.197016 0.468843,-0.319307 0.767909,-0.319307l2.94558 0c0.299067,0 0.570894,0.122291 0.767909,0.319307 0.197012,0.197012 0.319303,0.468843 0.319303,0.767909 0,0.172378 -0.0704646,0.329031 -0.183976,0.442543 -0.113516,0.113512 -0.270169,0.183976 -0.442547,0.183976z"/>
   <path id="_430181128" class="fil0" d="M1.74031 4.98666l3.34604 0c0.163169,0 0.311567,-0.066811 0.419205,-0.174445 0.10485,-0.10485 0.170949,-0.248386 0.174299,-0.406567l-4.53304 0c0.00335039,0.158181 0.0694488,0.301717 0.174299,0.406567 0.107638,0.107634 0.256035,0.174445 0.419205,0.174445zm3.34604 0.16l-3.34604 0c-0.207335,0 -0.395772,-0.0847638 -0.532331,-0.221319 -0.136555,-0.136555 -0.221319,-0.324992 -0.221319,-0.532327l0 -3.93701e-006c0,-0.0406142 0.0165591,-0.0774724 0.0432244,-0.104138 0.0266654,-0.0266654 0.0635315,-0.0432244 0.104142,-0.0432244l4.5586 0c0.0406102,0 0.0774764,0.0165591 0.104142,0.0432244 0.0266654,0.0266654 0.0432244,0.0635236 0.0432244,0.104138l0 3.93701e-006c0,0.207335 -0.0847638,0.395772 -0.221319,0.532327 -0.136559,0.136555 -0.324996,0.221319 -0.532331,0.221319z"/>
   <path id="_430181416" class="fil0" d="M1.18631 4.24565l4.45405 0c0.0474843,0 0.0907165,-0.0194882 0.122102,-0.050874 0.0313858,-0.0313858 0.050874,-0.0746181 0.050874,-0.122102l0 -3.93701e-006c0,-0.0474803 -0.0194882,-0.0907126 -0.050874,-0.122102 -0.0313858,-0.0313858 -0.0746181,-0.050874 -0.122102,-0.050874l-4.45405 0c-0.0474843,0 -0.0907165,0.0194882 -0.122102,0.050874 -0.0313858,0.0313898 -0.050874,0.074622 -0.050874,0.122102l0 3.93701e-006c0,0.0474843 0.0194882,0.0907165 0.050874,0.122102 0.0313858,0.0313858 0.0746181,0.050874 0.122102,0.050874zm4.45405 0.16l-4.45405 0c-0.0916535,0 -0.174921,-0.0374409 -0.235228,-0.097748 -0.0603071,-0.0603071 -0.097748,-0.143575 -0.097748,-0.235228l0 -3.93701e-006c0,-0.0916457 0.0374409,-0.174913 0.097748,-0.235228 0.0603071,-0.0603071 0.143575,-0.097748 0.235228,-0.097748l4.45405 0c0.0916535,0 0.174921,0.0374409 0.235228,0.097748 0.0603071,0.060315 0.097748,0.143583 0.097748,0.235228l0 3.93701e-006c0,0.0916535 -0.0374409,0.174921 -0.097748,0.235228 -0.0603071,0.0603071 -0.143575,0.097748 -0.235228,0.097748z"/>
   <g>
    <circle id="_430181176" class="fil1" cx="1.23834" cy="2.96076" r="0.0878807"/>
    <circle id="_430180840" class="fil1" cx="1.7253" cy="3.07487" r="0.0878807"/>
    <circle id="_430181272" class="fil1" cx="2.2076" cy="3.07487" r="0.0878807"/>
    <circle id="_430181344" class="fil1" cx="2.68989" cy="3.07487" r="0.0878807"/>
    <circle id="_430180744" class="fil1" cx="3.17218" cy="3.07487" r="0.0878807"/>
    <circle id="_430180552" class="fil1" cx="3.65448" cy="3.07487" r="0.0878807"/>
    <circle id="_430180192" class="fil1" cx="4.13677" cy="3.07487" r="0.0878807"/>
    <circle id="_430180408" class="fil1" cx="4.61906" cy="3.07487" r="0.0878807"/>
    <circle id="_430180624" class="fil1" cx="5.10135" cy="3.07487" r="0.0878807"/>
    <circle id="_430180384" class="fil1" cx="5.57141" cy="2.97268" r="0.0878807"/>
   </g>
   <g>
    <circle id="_430180360" class="fil1" cx="1.48416" cy="2.82284" r="0.0878807"/>
    <circle id="_430179784" class="fil1" cx="1.96645" cy="2.82284" r="0.0878807"/>
    <circle id="_430179376" class="fil1" cx="2.44874" cy="2.82284" r="0.0878807"/>
    <circle id="_430180048" class="fil1" cx="2.93104" cy="2.82284" r="0.0878807"/>
    <circle id="_430179712" class="fil1" cx="3.41333" cy="2.82284" r="0.0878807"/>
    <circle id="_430179928" class="fil1" cx="3.89562" cy="2.82284" r="0.0878807"/>
    <circle id="_430179856" class="fil1" cx="4.37792" cy="2.82284" r="0.0878807"/>
    <circle id="_430179328" class="fil1" cx="4.86021" cy="2.82284" r="0.0878807"/>
    <circle id="_430179736" class="fil1" cx="5.3425" cy="2.82284" r="0.0878807"/>
   </g>
   <g>
    <circle id="_430178728" class="fil1" cx="1.24301" cy="2.57082" r="0.0878807"/>
    <circle id="_430179016" class="fil1" cx="1.7253" cy="2.57082" r="0.0878807"/>
    <circle id="_430178992" class="fil1" cx="2.2076" cy="2.57082" r="0.0878807"/>
    <circle id="_430179064" class="fil1" cx="2.68989" cy="2.57082" r="0.0878807"/>
    <circle id="_430178680" class="fil1" cx="3.17218" cy="2.57082" r="0.0878807"/>
    <circle id="_430179040" class="fil1" cx="3.65448" cy="2.57082" r="0.0878807"/>
    <circle id="_430178848" class="fil1" cx="4.13677" cy="2.57082" r="0.0878807"/>
    <circle id="_430178584" class="fil1" cx="4.61906" cy="2.57082" r="0.0878807"/>
    <circle id="_430178200" class="fil1" cx="5.10135" cy="2.57082" r="0.0878807"/>
    <circle id="_430178056" class="fil1" cx="5.58365" cy="2.57082" r="0.0878807"/>
   </g>
   <g>
    <circle id="_430177864" class="fil1" cx="1.48416" cy="2.31879" r="0.0878807"/>
    <circle id="_430178512" class="fil1" cx="1.96645" cy="2.31879" r="0.0878807"/>
    <circle id="_430178104" class="fil1" cx="2.44874" cy="2.31879" r="0.0878807"/>
    <circle id="_430177888" class="fil1" cx="2.93104" cy="2.31879" r="0.0878807"/>
    <circle id="_430178488" class="fil1" cx="3.41333" cy="2.31879" r="0.0878807"/>
    <circle id="_260310584" class="fil1" cx="3.89562" cy="2.31879" r="0.0878807"/>
    <circle id="_431741000" class="fil1" cx="4.37792" cy="2.31879" r="0.0878807"/>
    <circle id="_263526304" class="fil1" cx="4.86021" cy="2.31879" r="0.0878807"/>
    <circle id="_260310416" class="fil1" cx="5.3425" cy="2.31879" r="0.0878807"/>
   </g>
   <g>
    <circle id="_429665880" class="fil1" cx="1.7253" cy="2.06121" r="0.0878807"/>
    <circle id="_431741192" class="fil1" cx="2.2076" cy="2.06121" r="0.0878807"/>
    <circle id="_431740880" class="fil1" cx="2.68989" cy="2.06121" r="0.0878807"/>
    <circle id="_431430496" class="fil1" cx="3.17218" cy="2.06121" r="0.0878807"/>
    <circle id="_431430328" class="fil1" cx="3.65448" cy="2.06121" r="0.0878807"/>
    <circle id="_431430472" class="fil1" cx="4.13677" cy="2.06121" r="0.0878807"/>
    <circle id="_431430520" class="fil1" cx="4.61906" cy="2.06121" r="0.0878807"/>
    <circle id="_431430688" class="fil1" cx="5.10135" cy="2.06121" r="0.0878807"/>
   </g>
   <path id="_431430448" class="fil0" d="M1.33333 3.93907c-0.0441811,0 -0.08,0.0358189 -0.08,0.08 0,0.0441811 0.0358189,0.08 0.08,0.08 0.0405079,0 0.0902087,0.0230551 0.139898,0.0461024 0.0658583,0.0305512 0.131728,0.0611024 0.206772,0.0611024 0.0750354,0 0.140909,-0.0305512 0.206768,-0.0611024 0.049689,-0.0230472 0.0993898,-0.0461024 0.139898,-0.0461024 0.0405039,0 0.0902047,0.0230551 0.139894,0.0461024 0.0658583,0.0305512 0.131728,0.0611024 0.206772,0.0611024 0.0750394,0 0.140909,-0.0305512 0.206772,-0.0611024 0.049689,-0.0230472 0.0993898,-0.0461024 0.139898,-0.0461024 0.0405039,0 0.0902047,0.0230551 0.139894,0.0461024 0.0658583,0.0305512 0.131728,0.0611024 0.206772,0.0611024 0.0750354,0 0.140909,-0.0305512 0.206768,-0.0611024 0.049689,-0.0230472 0.0993898,-0.0461024 0.139898,-0.0461024 0.0405079,0 0.0902087,0.0230551 0.139898,0.0461024 0.0658583,0.0305512 0.131732,0.0611024 0.206768,0.0611024 0.0750433,0 0.140913,-0.0305512 0.206772,-0.0611024 0.049689,-0.0230472 0.0993898,-0.0461024 0.139894,-0.0461024 0.0405079,0 0.0902087,0.0230551 0.139898,0.0461024 0.0658622,0.0305512 0.131732,0.0611024 0.206772,0.0611024 0.0750433,0 0.140913,-0.0305512 0.206772,-0.0611024 0.049689,-0.0230472 0.0993898,-0.0461024 0.139894,-0.0461024 0.0405079,0 0.0902087,0.0230551 0.139898,0.0461024 0.0658583,0.0305512 0.131732,0.0611024 0.206768,0.0611024 0.0750433,0 0.140913,-0.0305512 0.206772,-0.0611024 0.049689,-0.0230472 0.0993898,-0.0461024 0.139898,-0.0461024 0.0441811,0 0.08,-0.0358189 0.08,-0.08 0,-0.0441811 -0.0358189,-0.08 -0.08,-0.08 -0.0750433,0 -0.140909,0.0305551 -0.206772,0.0611024 -0.0496929,0.0230512 -0.0993898,0.0461024 -0.139898,0.0461024 -0.0405079,0 -0.0902087,-0.0230512 -0.139894,-0.0461024 -0.0658622,-0.0305472 -0.13172,-0.0611024 -0.206772,-0.0611024 -0.0750433,0 -0.140909,0.0305551 -0.206768,0.0611024 -0.0496929,0.0230512 -0.0993898,0.0461024 -0.139898,0.0461024 -0.0405039,0 -0.0902047,-0.0230512 -0.139898,-0.0461024 -0.0658622,-0.0305472 -0.13172,-0.0611024 -0.206772,-0.0611024 -0.0750433,0 -0.140909,0.0305551 -0.206768,0.0611024 -0.0496929,0.0230512 -0.0993898,0.0461024 -0.139898,0.0461024 -0.0405079,0 -0.0902087,-0.0230512 -0.139894,-0.0461024 -0.0658622,-0.0305472 -0.13172,-0.0611024 -0.206772,-0.0611024 -0.0750512,0 -0.140909,0.0305551 -0.206772,0.0611024 -0.049685,0.0230512 -0.0993858,0.0461024 -0.139894,0.0461024 -0.0405079,0 -0.0902047,-0.0230512 -0.139898,-0.0461024 -0.0658583,-0.0305472 -0.131724,-0.0611024 -0.206768,-0.0611024 -0.0750512,0 -0.140909,0.0305551 -0.206772,0.0611024 -0.0496929,0.0230512 -0.0993937,0.0461024 -0.139898,0.0461024 -0.0405079,0 -0.0902047,-0.0230512 -0.139898,-0.0461024 -0.0658583,-0.0305472 -0.131724,-0.0611024 -0.206768,-0.0611024 -0.0750512,0 -0.140909,0.0305551 -0.206772,0.0611024 -0.049685,0.0230512 -0.0993858,0.0461024 -0.139894,0.0461024 -0.0405079,0 -0.0902047,-0.0230512 -0.139898,-0.0461024 -0.0658622,-0.0305472 -0.131728,-0.0611024 -0.206772,-0.0611024z"/>
  </g>
  <path class="fil2" d="M2.53663 2.82284c0,0.0485354 -0.0393465,0.087878 -0.0878819,0.087878 -0.0485354,0 -0.0878819,-0.0393425 -0.0878819,-0.087878 0,-0.0485354 0.0393465,-0.0878819 0.0878819,-0.0878819 0.0485354,0 0.0878819,0.0393465 0.0878819,0.0878819zm-0.329031 0.164146c0.0485354,0 0.0878819,0.0393425 0.0878819,0.087878 0,0.0485354 -0.0393465,0.0878819 -0.0878819,0.0878819 -0.0485354,0 -0.087878,-0.0393465 -0.087878,-0.0878819 0,-0.0485354 0.0393425,-0.087878 0.087878,-0.087878zm-0.72774 0.246744l3.86696 0c0.128205,0 0.244827,-0.0525118 0.329421,-0.137102 0.0845906,-0.0845906 0.137102,-0.201213 0.137102,-0.329417 0,-0.254898 -0.104339,-0.486693 -0.272429,-0.654783 -0.168094,-0.168094 -0.399886,-0.272433 -0.654783,-0.272433l-2.94558 0c-0.254898,0 -0.486689,0.104339 -0.654783,0.272433 -0.168091,0.168091 -0.272429,0.399886 -0.272429,0.654783 0,0.128205 0.0525118,0.244827 0.137102,0.329417 0.0845945,0.0845906 0.201217,0.137102 0.329421,0.137102zm1.53906 -0.914937c0,0.0485354 -0.0393465,0.0878819 -0.087878,0.0878819 -0.0485354,0 -0.0878819,-0.0393465 -0.0878819,-0.0878819 0,-0.0485354 0.0393465,-0.0878819 0.0878819,-0.0878819 0.0485315,0 0.087878,0.0393465 0.087878,0.0878819zm-0.482291 0c0,0.0485354 -0.0393465,0.0878819 -0.0878819,0.0878819 -0.0485354,0 -0.0878819,-0.0393465 -0.0878819,-0.0878819 0,-0.0485354 0.0393465,-0.0878819 0.0878819,-0.0878819 0.0485354,0 0.0878819,0.0393465 0.0878819,0.0878819zm-0.482295 0c0,0.0485354 -0.0393425,0.0878819 -0.087878,0.0878819 -0.0485354,0 -0.0878819,-0.0393465 -0.0878819,-0.0878819 0,-0.0485354 0.0393465,-0.0878819 0.0878819,-0.0878819 0.0485354,0 0.087878,0.0393465 0.087878,0.0878819zm-0.482291 0c0,0.0485354 -0.0393465,0.0878819 -0.0878819,0.0878819 -0.0485354,0 -0.0878819,-0.0393465 -0.0878819,-0.0878819 0,-0.0485354 0.0393465,-0.0878819 0.0878819,-0.0878819 0.0485354,0 0.0878819,0.0393465 0.0878819,0.0878819zm1.60014 0.164142c0.0485354,0 0.0878819,0.0393425 0.0878819,0.087878 0,0.0485354 -0.0393465,0.0878819 -0.0878819,0.0878819 -0.0485354,0 -0.087878,-0.0393465 -0.087878,-0.0878819 0,-0.0485354 0.0393425,-0.087878 0.087878,-0.087878zm-0.394413 0.087878c0,0.0485354 -0.0393425,0.0878819 -0.087878,0.0878819 -0.0485354,0 -0.0878819,-0.0393465 -0.0878819,-0.0878819 0,-0.0485354 0.0393465,-0.087878 0.0878819,-0.087878 0.0485354,0 0.087878,0.0393425 0.087878,0.087878zm-0.482291 0c0,0.0485354 -0.0393465,0.0878819 -0.0878819,0.0878819 -0.0485354,0 -0.087878,-0.0393465 -0.087878,-0.0878819 0,-0.0485354 0.0393425,-0.087878 0.087878,-0.087878 0.0485354,0 0.0878819,0.0393425 0.0878819,0.087878zm-0.482291 0c0,0.0485354 -0.0393465,0.0878819 -0.0878819,0.0878819 -0.0485354,0 -0.0878819,-0.0393465 -0.0878819,-0.0878819 0,-0.0485354 0.0393465,-0.087878 0.0878819,-0.087878 0.0485354,0 0.0878819,0.0393425 0.0878819,0.087878zm1.11785 0.164146c0.0485315,0 0.087878,0.0393465 0.087878,0.0878819 0,0.0485354 -0.0393465,0.087878 -0.087878,0.087878 -0.0485354,0 -0.0878819,-0.0393425 -0.0878819,-0.087878 0,-0.0485354 0.0393465,-0.0878819 0.0878819,-0.0878819zm-0.876709 0.0878819c0,0.0485354 -0.0393425,0.087878 -0.087878,0.087878 -0.0485354,0 -0.0878819,-0.0393425 -0.0878819,-0.087878 0,-0.0485354 0.0393465,-0.0878819 0.0878819,-0.0878819 0.0485354,0 0.087878,0.0393465 0.087878,0.0878819zm-0.482291 0c0,0.0485354 -0.0393465,0.087878 -0.0878819,0.087878 -0.0485354,0 -0.0878819,-0.0393425 -0.0878819,-0.087878 0,-0.0485354 0.0393465,-0.0878819 0.0878819,-0.0878819 0.0485354,0 0.0878819,0.0393465 0.0878819,0.0878819zm1.60014 0.164146c0.0485354,0 0.0878819,0.0393425 0.0878819,0.087878 0,0.0485354 -0.0393465,0.0878819 -0.0878819,0.0878819 -0.0485354,0 -0.087878,-0.0393465 -0.087878,-0.0878819 0,-0.0485354 0.0393425,-0.087878 0.087878,-0.087878zm-0.482291 0c0.0485354,0 0.087878,0.0393425 0.087878,0.087878 0,0.0485354 -0.0393425,0.0878819 -0.087878,0.0878819 -0.0485354,0 -0.0878819,-0.0393465 -0.0878819,-0.0878819 0,-0.0485354 0.0393465,-0.087878 0.0878819,-0.087878zm-0.876705 0.087878c0,0.0485354 -0.0393465,0.0878819 -0.0878819,0.0878819 -0.0485354,0 -0.0878819,-0.0393465 -0.0878819,-0.0878819 0,-0.0485354 0.0393465,-0.087878 0.0878819,-0.087878 0.0485354,0 0.0878819,0.0393425 0.0878819,0.087878zm-0.486969 -0.114106c0,0.0485354 -0.0393465,0.0878819 -0.0878819,0.0878819 -0.0485315,0 -0.087878,-0.0393465 -0.087878,-0.0878819 0,-0.0485354 0.0393465,-0.087878 0.087878,-0.087878 0.0485354,0 0.0878819,0.0393425 0.0878819,0.087878zm0.00467323 -0.389945c0,0.0485354 -0.0393465,0.0878819 -0.0878819,0.0878819 -0.0485315,0 -0.087878,-0.0393465 -0.087878,-0.0878819 0,-0.0485354 0.0393465,-0.087878 0.087878,-0.087878 0.0485354,0 0.0878819,0.0393425 0.0878819,0.087878zm2.08244 -0.164138c-0.0485354,0 -0.0878819,-0.0393465 -0.0878819,-0.0878819 0,-0.0485354 0.0393465,-0.0878819 0.0878819,-0.0878819 0.0485354,0 0.0878819,0.0393465 0.0878819,0.0878819 0,0.0485354 -0.0393465,0.0878819 -0.0878819,0.0878819zm1.11785 0.164138c0,-0.0485354 0.0393465,-0.087878 0.0878819,-0.087878 0.0485315,0 0.087878,0.0393425 0.087878,0.087878 0,0.0485354 -0.0393465,0.0878819 -0.087878,0.0878819 -0.0485354,0 -0.0878819,-0.0393465 -0.0878819,-0.0878819zm0.482291 0c0,-0.0485354 0.0393465,-0.087878 0.0878819,-0.087878 0.0485354,0 0.0878819,0.0393425 0.0878819,0.087878 0,0.0485354 -0.0393465,0.0878819 -0.0878819,0.0878819 -0.0485354,0 -0.0878819,-0.0393465 -0.0878819,-0.0878819zm0.570173 0.0878819c-0.0485315,0 -0.087878,-0.0393465 -0.087878,-0.0878819 0,-0.0485354 0.0393465,-0.087878 0.087878,-0.087878 0.0485354,0 0.0878819,0.0393425 0.0878819,0.087878 0,0.0485354 -0.0393465,0.0878819 -0.0878819,0.0878819zm-1.7759 -0.339902c0,-0.0485354 0.0393465,-0.0878819 0.087878,-0.0878819 0.0485354,0 0.0878819,0.0393465 0.0878819,0.0878819 0,0.0485354 -0.0393465,0.0878819 -0.0878819,0.0878819 -0.0485315,0 -0.087878,-0.0393465 -0.087878,-0.0878819zm1.29361 -0.169705c-0.0485354,0 -0.0878819,-0.0393425 -0.0878819,-0.087878 0,-0.0485354 0.0393465,-0.0878819 0.0878819,-0.0878819 0.0485354,0 0.0878819,0.0393465 0.0878819,0.0878819 0,0.0485354 -0.0393465,0.087878 -0.0878819,0.087878zm-3.28817 -0.087878c0,0.0485354 -0.0393465,0.087878 -0.0878819,0.087878 -0.0485354,0 -0.0878819,-0.0393425 -0.0878819,-0.087878 0,-0.0485354 0.0393465,-0.0878819 0.0878819,-0.0878819 0.0485354,0 0.0878819,0.0393465 0.0878819,0.0878819zm2.56473 0.345465c-0.0485354,0 -0.0878819,-0.0393465 -0.0878819,-0.0878819 0,-0.0485354 0.0393465,-0.0878819 0.0878819,-0.0878819 0.0485354,0 0.0878819,0.0393465 0.0878819,0.0878819 0,0.0485354 -0.0393465,0.0878819 -0.0878819,0.0878819zm0.482291 0c-0.0485354,0 -0.087878,-0.0393465 -0.087878,-0.0878819 0,-0.0485354 0.0393425,-0.0878819 0.087878,-0.0878819 0.0485354,0 0.0878819,0.0393465 0.0878819,0.0878819 0,0.0485354 -0.0393465,0.0878819 -0.0878819,0.0878819zm0.482295 0c-0.0485354,0 -0.0878819,-0.0393465 -0.0878819,-0.0878819 0,-0.0485354 0.0393465,-0.0878819 0.0878819,-0.0878819 0.0485354,0 0.0878819,0.0393465 0.0878819,0.0878819 0,0.0485354 -0.0393465,0.0878819 -0.0878819,0.0878819zm-1.20574 0.25202c-0.0485354,0 -0.0878819,-0.0393465 -0.0878819,-0.0878819 0,-0.0485354 0.0393465,-0.087878 0.0878819,-0.087878 0.0485354,0 0.0878819,0.0393425 0.0878819,0.087878 0,0.0485354 -0.0393465,0.0878819 -0.0878819,0.0878819zm-0.570173 -0.0878819c0,-0.0485354 0.0393465,-0.087878 0.0878819,-0.087878 0.0485354,0 0.087878,0.0393425 0.087878,0.087878 0,0.0485354 -0.0393425,0.0878819 -0.087878,0.0878819 -0.0485354,0 -0.0878819,-0.0393465 -0.0878819,-0.0878819zm1.05247 -0.421724c-0.0485354,0 -0.0878819,-0.0393425 -0.0878819,-0.087878 0,-0.0485354 0.0393465,-0.0878819 0.0878819,-0.0878819 0.0485315,0 0.087878,0.0393465 0.087878,0.0878819 0,0.0485354 -0.0393465,0.087878 -0.087878,0.087878zm-0.482295 0c-0.0485354,0 -0.0878819,-0.0393425 -0.0878819,-0.087878 0,-0.0485354 0.0393465,-0.0878819 0.0878819,-0.0878819 0.0485354,0 0.0878819,0.0393465 0.0878819,0.0878819 0,0.0485354 -0.0393465,0.087878 -0.0878819,0.087878zm-0.482291 0c-0.0485354,0 -0.0878819,-0.0393425 -0.0878819,-0.087878 0,-0.0485354 0.0393465,-0.0878819 0.0878819,-0.0878819 0.0485354,0 0.087878,0.0393465 0.087878,0.0878819 0,0.0485354 -0.0393425,0.087878 -0.087878,0.087878zm-0.394413 -0.087878c0,0.0485354 -0.0393465,0.087878 -0.0878819,0.087878 -0.0485354,0 -0.087878,-0.0393425 -0.087878,-0.087878 0,-0.0485354 0.0393425,-0.0878819 0.087878,-0.0878819 0.0485354,0 0.0878819,0.0393465 0.0878819,0.0878819zm-0.482295 0c0,0.0485354 -0.0393425,0.087878 -0.087878,0.087878 -0.0485354,0 -0.0878819,-0.0393425 -0.0878819,-0.087878 0,-0.0485354 0.0393465,-0.0878819 0.0878819,-0.0878819 0.0485354,0 0.087878,0.0393465 0.087878,0.0878819zm-0.482291 0c0,0.0485354 -0.0393465,0.087878 -0.0878819,0.087878 -0.0485354,0 -0.087878,-0.0393425 -0.087878,-0.087878 0,-0.0485354 0.0393425,-0.0878819 0.087878,-0.0878819 0.0485354,0 0.0878819,0.0393465 0.0878819,0.0878819zm2.47685 0.76163c0,-0.0485354 0.0393425,-0.0878819 0.087878,-0.0878819 0.0485354,0 0.0878819,0.0393465 0.0878819,0.0878819 0,0.0485354 -0.0393465,0.087878 -0.0878819,0.087878 -0.0485354,0 -0.087878,-0.0393425 -0.087878,-0.087878zm0.570173 0.087878c-0.0485354,0 -0.0878819,-0.0393425 -0.0878819,-0.087878 0,-0.0485354 0.0393465,-0.0878819 0.0878819,-0.0878819 0.0485354,0 0.0878819,0.0393465 0.0878819,0.0878819 0,0.0485354 -0.0393465,0.087878 -0.0878819,0.087878zm-0.964587 0c-0.0485354,0 -0.0878819,-0.0393425 -0.0878819,-0.087878 0,-0.0485354 0.0393465,-0.0878819 0.0878819,-0.0878819 0.0485354,0 0.0878819,0.0393465 0.0878819,0.0878819 0,0.0485354 -0.0393465,0.087878 -0.0878819,0.087878zm-0.570173 -0.087878c0,-0.0485354 0.0393465,-0.0878819 0.087878,-0.0878819 0.0485354,0 0.0878819,0.0393465 0.0878819,0.0878819 0,0.0485354 -0.0393465,0.087878 -0.0878819,0.087878 -0.0485315,0 -0.087878,-0.0393425 -0.087878,-0.087878zm-0.482295 0c0,-0.0485354 0.0393465,-0.0878819 0.0878819,-0.0878819 0.0485354,0 0.0878819,0.0393465 0.0878819,0.0878819 0,0.0485354 -0.0393465,0.087878 -0.0878819,0.087878 -0.0485354,0 -0.0878819,-0.0393425 -0.0878819,-0.087878zm2.24596 0.23772c-0.0485315,0 -0.087878,-0.0393465 -0.087878,-0.0878819 0,-0.0485354 0.0393465,-0.087878 0.087878,-0.087878 0.0485354,0 0.0878819,0.0393425 0.0878819,0.087878 0,0.0485354 -0.0393465,0.0878819 -0.0878819,0.0878819zm-0.470055 0.102185c-0.0485354,0 -0.0878819,-0.0393465 -0.0878819,-0.0878819 0,-0.0485354 0.0393465,-0.087878 0.0878819,-0.087878 0.0485354,0 0.0878819,0.0393425 0.0878819,0.087878 0,0.0485354 -0.0393465,0.0878819 -0.0878819,0.0878819zm-0.570173 -0.0878819c0,-0.0485354 0.0393465,-0.087878 0.0878819,-0.087878 0.0485315,0 0.087878,0.0393425 0.087878,0.087878 0,0.0485354 -0.0393465,0.0878819 -0.087878,0.0878819 -0.0485354,0 -0.0878819,-0.0393465 -0.0878819,-0.0878819zm-0.482295 0c0,-0.0485354 0.0393465,-0.087878 0.0878819,-0.087878 0.0485354,0 0.0878819,0.0393425 0.0878819,0.087878 0,0.0485354 -0.0393465,0.0878819 -0.0878819,0.0878819 -0.0485354,0 -0.0878819,-0.0393465 -0.0878819,-0.0878819zm-0.482291 0c0,-0.0485354 0.0393465,-0.087878 0.0878819,-0.087878 0.0485354,0 0.087878,0.0393425 0.087878,0.087878 0,0.0485354 -0.0393425,0.0878819 -0.087878,0.0878819 -0.0485354,0 -0.0878819,-0.0393465 -0.0878819,-0.0878819z"/>
  <path class="fil3" d="M5.34681 3.39373l-3.86696 0 -0.293547 0c-0.0474843,0 -0.0907165,0.0194882 -0.122102,0.050874 -0.0313858,0.0313898 -0.050874,0.074622 -0.050874,0.122106 0,0.0474843 0.0194882,0.0907165 0.050874,0.122102 0.0313858,0.0313858 0.0746181,0.050874 0.122102,0.050874l4.45405 0c0.0474843,0 0.0907165,-0.0194882 0.122102,-0.050874 0.0313858,-0.0313858 0.050874,-0.0746181 0.050874,-0.122106 0,-0.0474803 -0.0194882,-0.0907126 -0.050874,-0.122102 -0.0313858,-0.0313858 -0.0746181,-0.050874 -0.122102,-0.050874l-0.293547 0z"/>
  <path class="fil3" d="M1.33333 4.09907c-0.0441811,0 -0.08,-0.0358189 -0.08,-0.08 0,-0.0441811 0.0358189,-0.08 0.08,-0.08 0.0750433,0 0.140909,0.0305551 0.206772,0.0611024 0.0496929,0.0230512 0.0993898,0.0461024 0.139898,0.0461024 0.0405079,0 0.0902087,-0.0230512 0.139894,-0.0461024 0.0658622,-0.0305472 0.13172,-0.0611024 0.206772,-0.0611024 0.0750433,0 0.140909,0.0305551 0.206768,0.0611024 0.0496929,0.0230512 0.0993898,0.0461024 0.139898,0.0461024 0.0405039,0 0.0902047,-0.0230512 0.139898,-0.0461024 0.0658622,-0.0305472 0.13172,-0.0611024 0.206772,-0.0611024 0.0750433,0 0.140909,0.0305551 0.206768,0.0611024 0.0496929,0.0230512 0.0993898,0.0461024 0.139898,0.0461024 0.0405079,0 0.0902087,-0.0230512 0.139894,-0.0461024 0.0658622,-0.0305472 0.13172,-0.0611024 0.206772,-0.0611024 0.0750512,0 0.140909,0.0305551 0.206772,0.0611024 0.049685,0.0230512 0.0993858,0.0461024 0.139894,0.0461024 0.0405079,0 0.0902047,-0.0230512 0.139898,-0.0461024 0.0658583,-0.0305472 0.131724,-0.0611024 0.206768,-0.0611024 0.0750512,0 0.140909,0.0305551 0.206772,0.0611024 0.0496929,0.0230512 0.0993937,0.0461024 0.139898,0.0461024 0.0405079,0 0.0902047,-0.0230512 0.139898,-0.0461024 0.0658583,-0.0305472 0.131724,-0.0611024 0.206768,-0.0611024 0.0750512,0 0.140909,0.0305551 0.206772,0.0611024 0.049685,0.0230512 0.0993858,0.0461024 0.139894,0.0461024 0.0405079,0 0.0902047,-0.0230512 0.139898,-0.0461024 0.0658622,-0.0305472 0.131728,-0.0611024 0.206772,-0.0611024 0.0441811,0 0.08,0.0358189 0.08,0.08 0,0.0441811 -0.0358189,0.08 -0.08,0.08 -0.0405079,0 -0.0902087,0.0230551 -0.139898,0.0461024 -0.0658583,0.0305512 -0.131728,0.0611024 -0.206772,0.0611024 -0.0750354,0 -0.140909,-0.0305512 -0.206768,-0.0611024 -0.049689,-0.0230472 -0.0993898,-0.0461024 -0.139898,-0.0461024 -0.0405039,0 -0.0902047,0.0230551 -0.139894,0.0461024 -0.0658583,0.0305512 -0.131728,0.0611024 -0.206772,0.0611024 -0.0750394,0 -0.140909,-0.0305512 -0.206772,-0.0611024 -0.049689,-0.0230472 -0.0993898,-0.0461024 -0.139898,-0.0461024 -0.0405039,0 -0.0902047,0.0230551 -0.139894,0.0461024 -0.0658583,0.0305512 -0.131728,0.0611024 -0.206772,0.0611024 -0.0750354,0 -0.140909,-0.0305512 -0.206768,-0.0611024 -0.049689,-0.0230472 -0.0993898,-0.0461024 -0.139898,-0.0461024 -0.0405079,0 -0.0902087,0.0230551 -0.139898,0.0461024 -0.0658583,0.0305512 -0.131732,0.0611024 -0.206768,0.0611024 -0.0750433,0 -0.140913,-0.0305512 -0.206772,-0.0611024 -0.049689,-0.0230472 -0.0993898,-0.0461024 -0.139894,-0.0461024 -0.0405079,0 -0.0902087,0.0230551 -0.139898,0.0461024 -0.0658622,0.0305512 -0.131732,0.0611024 -0.206772,0.0611024 -0.0750433,0 -0.140913,-0.0305512 -0.206772,-0.0611024 -0.049689,-0.0230472 -0.0993898,-0.0461024 -0.139894,-0.0461024 -0.0405079,0 -0.0902087,0.0230551 -0.139898,0.0461024 -0.0658583,0.0305512 -0.131732,0.0611024 -0.206768,0.0611024 -0.0750433,0 -0.140913,-0.0305512 -0.206772,-0.0611024 -0.049689,-0.0230472 -0.0993898,-0.0461024 -0.139898,-0.0461024zm4.30703 -0.199374l-4.45405 0c-0.0474843,0 -0.0907165,0.0194882 -0.122102,0.050874 -0.0313858,0.0313898 -0.050874,0.074622 -0.050874,0.122106 0,0.0474843 0.0194882,0.0907165 0.050874,0.122102 0.0313858,0.0313858 0.0746181,0.050874 0.122102,0.050874l4.45405 0c0.0474843,0 0.0907165,-0.0194882 0.122102,-0.050874 0.0313858,-0.0313858 0.050874,-0.0746181 0.050874,-0.122106 0,-0.0474803 -0.0194882,-0.0907126 -0.050874,-0.122102 -0.0313858,-0.0313858 -0.0746181,-0.050874 -0.122102,-0.050874z"/>
  <path class="fil2" d="M5.64036 4.40565l-4.45405 0 -0.0394961 0c0.00335039,0.158181 0.0694488,0.301717 0.174299,0.406567 0.107638,0.107634 0.256035,0.174445 0.419205,0.174445l3.34604 0c0.163169,0 0.311567,-0.066811 0.419205,-0.174445 0.10485,-0.10485 0.170949,-0.248386 0.174299,-0.406567l-0.0394961 0z"/>
 </g>
 <rect class="fil4" width="6.82666" height="6.82666"/>
</svg>
