<?xml version="1.0" encoding="UTF-8"?>
<!DOCTYPE svg PUBLIC "-//W3C//DTD SVG 1.1//EN" "http://www.w3.org/Graphics/SVG/1.1/DTD/svg11.dtd">
<!-- Creator: CorelDRAW -->
<svg xmlns="http://www.w3.org/2000/svg" xml:space="preserve" width="6.82666in" height="6.82666in" style="shape-rendering:geometricPrecision; text-rendering:geometricPrecision; image-rendering:optimizeQuality; fill-rule:evenodd; clip-rule:evenodd"
viewBox="0 0 6.82666 6.82666"
 xmlns:xlink="http://www.w3.org/1999/xlink">
 <defs>
  <style type="text/css">
   <![CDATA[
    .fil5 {fill:none}
    .fil4 {fill:#949494}
    .fil3 {fill:#F45A52}
    .fil0 {fill:#FECA5F}
    .fil2 {fill:#FFD3B3}
    .fil1 {fill:#333333;fill-rule:nonzero}
   ]]>
  </style>
 </defs>
 <g id="Layer_x0020_1">
  <metadata id="CorelCorpID_0Corel-Layer"/>
  <path class="fil0" d="M2.05691 4.65663l1.1633 -1.1633 -1.64517 0c0.0191535,0.447811 0.198362,0.854165 0.48187,1.1633zm0.62422 -1.04443c0.0411142,0.0411063 0.0665433,0.0979055 0.0665433,0.160626 0,0.0627283 -0.0254331,0.11952 -0.0665433,0.160626 -0.0411063,0.0411142 -0.0979055,0.0665433 -0.160626,0.0665433 -0.0627283,0 -0.11952,-0.0254331 -0.160626,-0.0665433 -0.0411102,-0.0411063 -0.0665433,-0.0978976 -0.0665433,-0.160626 0,-0.0627205 0.0254291,-0.11952 0.0665433,-0.160626 0.0411063,-0.0411102 0.0978976,-0.0665433 0.160626,-0.0665433 0.0627205,0 0.11952,0.0254291 0.160626,0.0665433zm-0.968362 0.031185c0.0140354,-0.0257717 0.046311,-0.0352835 0.0720827,-0.021248 0.0576535,0.0314961 0.0744764,0.0259331 0.0911339,0.0204213 0.0378543,-0.0125236 0.0753701,-0.024937 0.169634,0.0265551 0.0257717,0.0140354 0.0352835,0.046311 0.021248,0.0720827 -0.0140354,0.0257717 -0.046311,0.0352835 -0.0720827,0.021248 -0.0534843,-0.0292165 -0.0694055,-0.0239488 -0.0854685,-0.0186339 -0.038248,0.0126575 -0.0768661,0.0254291 -0.175299,-0.0283425 -0.0257717,-0.0140354 -0.0352835,-0.046311 -0.021248,-0.0720827zm0.291752 0.476016c0.0485236,-0.0430276 0.114417,0.0339803 0.154098,0.0922126 -0.0432283,0.00590945 -0.0866772,-0.00157874 -0.120776,-0.0171063 -0.0171378,-0.00779921 -0.0311457,-0.017252 -0.0405669,-0.0275394 -0.00625197,-0.00682677 -0.0100236,-0.0134882 -0.0104213,-0.0193346 -0.000496063,-0.0073189 0.00475984,-0.0167874 0.0176654,-0.0282323z"/>
  <path class="fil0" d="M1.57504 3.33333l1.64517 0 -1.1633 -1.1633c-0.283508,0.309134 -0.462717,0.715488 -0.48187,1.1633zm1.14502 -0.227646c0.000496063,0.0073189 -0.00475984,0.0167874 -0.0176654,0.0282323 -0.0485236,0.0430276 -0.114417,-0.0339803 -0.154098,-0.0922126 0.0432283,-0.00590945 0.0866772,0.00157874 0.120776,0.0171063 0.0171378,0.00779921 0.0311457,0.017252 0.0405669,0.0275394 0.00625197,0.00682677 0.0100236,0.0134882 0.0104213,0.0193346zm-0.373386 -0.385693c0.0294528,0 0.0533346,0.0238819 0.0533346,0.0533346 0,0.111929 -0.0299173,0.139878 -0.0595551,0.167555 -0.0121654,0.0113622 -0.0242323,0.0226339 -0.0242323,0.083811 0,0.0294528 -0.0238819,0.0533346 -0.0533346,0.0533346 -0.0294528,0 -0.0533346,-0.0238819 -0.0533346,-0.0533346 0,-0.107181 0.0290787,-0.134331 0.0584055,-0.161724 0.0126299,-0.0117953 0.0253819,-0.0237087 0.0253819,-0.0896417 0,-0.0294528 0.0238819,-0.0533346 0.0533346,-0.0533346zm-0.232409 -0.277693l0.0830276 0.115681c0.0171417,0.023815 0.0117283,0.0570236 -0.0120866,0.0741654 -0.023815,0.0171417 -0.0570236,0.0117283 -0.0741654,-0.0120866l-0.0830276 -0.115681c-0.0171417,-0.023815 -0.0117283,-0.0570236 0.0120866,-0.0741654 0.023815,-0.0171417 0.0570236,-0.0117283 0.0741654,0.0120866zm-0.233756 0.356693c0.0627205,0 0.11952,0.0254291 0.160626,0.0665433 0.0411102,0.0411063 0.0665433,0.0978976 0.0665433,0.160626 0,0.0627205 -0.0254291,0.11952 -0.0665433,0.160626 -0.0411063,0.0411142 -0.0979055,0.0665433 -0.160626,0.0665433 -0.0627283,0 -0.11952,-0.0254331 -0.160626,-0.0665433 -0.0411142,-0.0411063 -0.0665433,-0.0979055 -0.0665433,-0.160626 0,-0.0627283 0.0254331,-0.11952 0.0665433,-0.160626 0.0411063,-0.0411102 0.0978976,-0.0665433 0.160626,-0.0665433z"/>
  <path class="fil0" d="M4.65663 4.76976l-1.1633 -1.1633 0 1.64517c0.447811,-0.0191535 0.854165,-0.198362 1.1633,-0.48187zm-1.01676 -0.62422c0.0411063,-0.0411142 0.0979055,-0.0665433 0.160626,-0.0665433 0.0627283,0 0.11952,0.0254331 0.160626,0.0665433 0.0411142,0.0411063 0.0665433,0.0979055 0.0665433,0.160626 0,0.0627283 -0.0254331,0.11952 -0.0665433,0.160626 -0.0411063,0.0411102 -0.0978976,0.0665433 -0.160626,0.0665433 -0.0627205,0 -0.11952,-0.0254291 -0.160626,-0.0665433 -0.0411102,-0.0411063 -0.0665433,-0.0978976 -0.0665433,-0.160626 0,-0.0627205 0.0254291,-0.11952 0.0665433,-0.160626zm0.61315 0.464787c0.0218583,-0.0195591 0.0554409,-0.0176929 0.075,0.00416535 0.0195591,0.0218583 0.0176929,0.0554409 -0.00416535,0.075l-0.106154 0.0949055c-0.0218583,0.0195591 -0.0554409,0.0176929 -0.075,-0.00416535 -0.0195591,-0.0218583 -0.0176929,-0.0554409 0.00416535,-0.075l0.106154 -0.0949055zm-0.438303 0.244713c0.0432283,-0.00590945 0.0866772,0.00157874 0.120776,0.0171063 0.0171378,0.00779921 0.0311457,0.017252 0.0405669,0.0275394 0.00625197,0.00682677 0.0100236,0.0134843 0.0104213,0.0193346 0.000496063,0.00731496 -0.00475984,0.0167874 -0.0176654,0.0282323 -0.0485236,0.0430276 -0.114417,-0.0339803 -0.154098,-0.0922126z"/>
  <path class="fil0" d="M5.25163 3.49333l-1.64517 0 1.1633 1.1633c0.283508,-0.309134 0.462717,-0.715488 0.48187,-1.1633zm-0.824961 0.279496c0,-0.0627205 0.0254291,-0.11952 0.0665433,-0.160626 0.0411063,-0.0411142 0.0979055,-0.0665433 0.160626,-0.0665433 0.0627283,0 0.11952,0.0254331 0.160626,0.0665433 0.0411142,0.0411063 0.0665433,0.0979055 0.0665433,0.160626 0,0.0627283 -0.0254331,0.11952 -0.0665433,0.160626 -0.0411063,0.0411102 -0.0978976,0.0665433 -0.160626,0.0665433 -0.0627205,0 -0.11952,-0.0254291 -0.160626,-0.0665433 -0.0411102,-0.0411063 -0.0665433,-0.0978976 -0.0665433,-0.160626zm0.350457 0.295799c0.0294528,0 0.0533346,0.0238819 0.0533346,0.0533346 0,0.111929 -0.0299173,0.139878 -0.0595551,0.167555 -0.0121654,0.0113622 -0.0242323,0.0226339 -0.0242323,0.083811 0,0.0294528 -0.0238819,0.0533346 -0.0533346,0.0533346 -0.0294528,0 -0.0533346,-0.0238819 -0.0533346,-0.0533346 0,-0.107181 0.0290787,-0.134331 0.0584055,-0.161724 0.0126299,-0.0117953 0.0253819,-0.0237087 0.0253819,-0.0896417 0,-0.0294528 0.0238819,-0.0533346 0.0533346,-0.0533346zm-0.524465 -0.418173c0.0195591,0.0218583 0.0176929,0.0554409 -0.00416535,0.075l-0.106154 0.0949055c-0.0218583,0.0195591 -0.0554409,0.0176929 -0.075,-0.00416535 -0.0195591,-0.0218583 -0.0176929,-0.0554409 0.00416535,-0.075l0.106154 -0.0949055c0.0218583,-0.0195591 0.0554409,-0.0176929 0.075,0.00416535z"/>
  <path class="fil0" d="M4.76976 2.17003l-1.1633 1.1633 1.64517 0c-0.0191535,-0.447811 -0.198362,-0.854165 -0.48187,-1.1633zm-0.147673 0.429547c-0.0218583,0.0195591 -0.0554409,0.0176929 -0.075,-0.00416535 -0.0195591,-0.0218583 -0.0176929,-0.0554409 0.00416535,-0.075l0.106154 -0.0949055c0.0218583,-0.0195591 0.0554409,-0.0176929 0.075,0.00416535 0.0195591,0.0218583 0.0176929,0.0554409 -0.00416535,0.075l-0.106154 0.0949055zm-0.393142 0.433185c0.0485236,-0.0430276 0.114417,0.0339803 0.154098,0.0922126 -0.0432283,0.00590945 -0.0866772,-0.00157874 -0.120776,-0.0171063 -0.0171378,-0.00779921 -0.0311457,-0.017252 -0.0405669,-0.0275394 -0.00625197,-0.00682677 -0.0100236,-0.0134843 -0.0104213,-0.0193346 -0.000496063,-0.00731496 0.00475984,-0.0167874 0.0176654,-0.0282323zm0.415457 -0.27089c0.0411063,-0.0411142 0.0979055,-0.0665433 0.160626,-0.0665433 0.0627283,0 0.11952,0.0254331 0.160626,0.0665433 0.0411102,0.0411063 0.0665433,0.0978976 0.0665433,0.160626 0,0.0627205 -0.0254291,0.11952 -0.0665433,0.160626 -0.0411063,0.0411102 -0.0978976,0.0665433 -0.160626,0.0665433 -0.0627205,0 -0.11952,-0.0254291 -0.160626,-0.0665433 -0.0411142,-0.0411063 -0.0665433,-0.0979055 -0.0665433,-0.160626 0,-0.0627283 0.0254331,-0.11952 0.0665433,-0.160626z"/>
  <path class="fil0" d="M3.33333 1.57504c-0.447811,0.0191535 -0.854165,0.198362 -1.1633,0.48187l1.1633 1.1633 0 -1.64517zm-0.271035 0.292819c0.023815,-0.0171417 0.0570236,-0.0117283 0.0741654,0.0120866l0.0830276 0.115681c0.0171417,0.023815 0.0117283,0.0570236 -0.0120866,0.0741654 -0.023815,0.0171417 -0.0570236,0.0117283 -0.0741654,-0.0120866l-0.0830276 -0.115681c-0.0171417,-0.023815 -0.0117283,-0.0570236 0.0120866,-0.0741654zm-0.357657 -0.0179921c0.0627205,0 0.11952,0.0254291 0.160626,0.0665433 0.0411102,0.0411063 0.0665433,0.0978976 0.0665433,0.160626 0,0.0627205 -0.0254291,0.11952 -0.0665433,0.160626 -0.0411063,0.0411142 -0.0979055,0.0665433 -0.160626,0.0665433 -0.0627283,0 -0.11952,-0.0254331 -0.160626,-0.0665433 -0.0411142,-0.0411063 -0.0665433,-0.0979055 -0.0665433,-0.160626 0,-0.0627283 0.0254331,-0.11952 0.0665433,-0.160626 0.0411063,-0.0411102 0.0978976,-0.0665433 0.160626,-0.0665433zm0.388697 0.512098c0.0294528,0 0.0533346,0.0238819 0.0533346,0.0533346 0,0.111929 -0.0299173,0.139878 -0.0595551,0.167555 -0.0121654,0.0113622 -0.0242323,0.0226339 -0.0242323,0.083811 0,0.0294528 -0.0238819,0.0533346 -0.0533346,0.0533346 -0.0294528,0 -0.0533346,-0.0238819 -0.0533346,-0.0533346 0,-0.107181 0.0290787,-0.134331 0.0584055,-0.161724 0.0126299,-0.0117953 0.0253819,-0.0237087 0.0253819,-0.0896417 0,-0.0294528 0.0238819,-0.0533346 0.0533346,-0.0533346z"/>
  <path class="fil0" d="M3.49333 1.57504l0 1.64517 1.1633 -1.1633c-0.309134,-0.283508 -0.715488,-0.462717 -1.1633,-0.48187zm0.583039 0.482886c-0.0862992,0.0765236 -0.198252,-0.068374 -0.252516,-0.152378 0.0714252,-0.0168386 0.146035,-0.00644094 0.202724,0.0193701 0.0254449,0.0115866 0.0465039,0.0259055 0.0610157,0.0417441 0.0113386,0.012378 0.0182244,0.0252756 0.0190669,0.0376496 0.00105906,0.0155787 -0.0079252,0.0337835 -0.0302913,0.0536142zm-0.303539 0.207736c0.0627283,0 0.11952,0.0254331 0.160626,0.0665433 0.0411102,0.0411063 0.0665433,0.0978976 0.0665433,0.160626 0,0.0627205 -0.0254291,0.11952 -0.0665433,0.160626 -0.0411063,0.0411102 -0.0978976,0.0665433 -0.160626,0.0665433 -0.0627205,0 -0.11952,-0.0254291 -0.160626,-0.0665433 -0.0411142,-0.0411063 -0.0665433,-0.0979055 -0.0665433,-0.160626 0,-0.0627283 0.0254331,-0.11952 0.0665433,-0.160626 0.0411063,-0.0411142 0.0979055,-0.0665433 0.160626,-0.0665433z"/>
  <g id="_430176136">
   <path id="_621921256" class="fil1" d="M3.41333 0.853331c0.706917,0 1.34692,0.286539 1.81019,0.749811 0.463272,0.463272 0.749811,1.10327 0.749811,1.81019 0,0.706917 -0.286539,1.34692 -0.749811,1.81019 -0.463272,0.463272 -1.10327,0.749811 -1.81019,0.749811 -0.706917,0 -1.34692,-0.286539 -1.81019,-0.749811 -0.463272,-0.463272 -0.749811,-1.10327 -0.749811,-1.81019 0,-0.706917 0.286539,-1.34692 0.749811,-1.81019 0.463272,-0.463272 1.10327,-0.749811 1.81019,-0.749811zm1.69706 0.862937c-0.434307,-0.434307 -1.03431,-0.702937 -1.69706,-0.702937 -0.662748,0 -1.26276,0.26863 -1.69706,0.702937 -0.434307,0.434307 -0.702937,1.03431 -0.702937,1.69706 0,0.662748 0.26863,1.26276 0.702937,1.69706 0.434307,0.434307 1.03431,0.702937 1.69706,0.702937 0.662748,0 1.26276,-0.26863 1.69706,-0.702937 0.434307,-0.434307 0.702937,-1.03431 0.702937,-1.69706 0,-0.662748 -0.26863,-1.26276 -0.702937,-1.69706z"/>
   <path id="_621921784" class="fil1" d="M3.41333 1.41333c0.55228,0 1.05228,0.223862 1.41421,0.585791 0.361929,0.361929 0.585791,0.861933 0.585791,1.41421 0,0.55228 -0.223862,1.05228 -0.585791,1.41421 -0.361929,0.361929 -0.861933,0.585791 -1.41421,0.585791 -0.55228,0 -1.05228,-0.223862 -1.41421,-0.585791 -0.361929,-0.361929 -0.585791,-0.861933 -0.585791,-1.41421 0,-0.55228 0.223862,-1.05228 0.585791,-1.41421 0.361929,-0.361929 0.861933,-0.585791 1.41421,-0.585791zm1.30109 0.698917c-0.332969,-0.332969 -0.792976,-0.538917 -1.30109,-0.538917 -0.50811,0 -0.968118,0.205949 -1.30109,0.538917 -0.332969,0.332969 -0.538917,0.792976 -0.538917,1.30109 0,0.50811 0.205949,0.968118 0.538917,1.30109 0.332969,0.332969 0.792976,0.538917 1.30109,0.538917 0.50811,0 0.968118,-0.205949 1.30109,-0.538917 0.332969,-0.332969 0.538917,-0.792976 0.538917,-1.30109 0,-0.50811 -0.205949,-0.968118 -0.538917,-1.30109z"/>
   <path id="_621921760" class="fil1" d="M3.49333 0.933331c0,-0.0441811 -0.0358189,-0.08 -0.08,-0.08 -0.0441811,0 -0.08,0.0358189 -0.08,0.08l0 2.48c0,0.0441811 0.0358189,0.08 0.08,0.08 0.0441811,0 0.08,-0.0358189 0.08,-0.08l0 -2.48z"/>
   <path id="_621921568" class="fil1" d="M5.22352 1.71627c0.0312362,-0.0312362 0.0312362,-0.0818898 0,-0.113126 -0.0312362,-0.0312362 -0.0818898,-0.0312362 -0.113126,0l-1.75363 1.75363c-0.0312362,0.0312362 -0.0312362,0.0818898 0,0.113126 0.0312362,0.0312362 0.0818898,0.0312362 0.113126,0l1.75363 -1.75363z"/>
   <path id="_621921664" class="fil1" d="M5.89333 3.49333c0.0441811,0 0.08,-0.0358189 0.08,-0.08 0,-0.0441811 -0.0358189,-0.08 -0.08,-0.08l-2.48 0c-0.0441811,0 -0.08,0.0358189 -0.08,0.08 0,0.0441811 0.0358189,0.08 0.08,0.08l2.48 0z"/>
   <path id="_621921496" class="fil1" d="M5.11039 5.22352c0.0312362,0.0312362 0.0818898,0.0312362 0.113126,0 0.0312362,-0.0312362 0.0312362,-0.0818898 0,-0.113126l-1.75363 -1.75363c-0.0312362,-0.0312362 -0.0818898,-0.0312362 -0.113126,0 -0.0312362,0.0312362 -0.0312362,0.0818898 0,0.113126l1.75363 1.75363z"/>
   <path id="_621921544" class="fil1" d="M3.33333 5.89333c0,0.0441811 0.0358189,0.08 0.08,0.08 0.0441811,0 0.08,-0.0358189 0.08,-0.08l0 -2.48c0,-0.0441811 -0.0358189,-0.08 -0.08,-0.08 -0.0441811,0 -0.08,0.0358189 -0.08,0.08l0 2.48z"/>
   <path id="_621921712" class="fil1" d="M1.60314 5.11039c-0.0312362,0.0312362 -0.0312362,0.0818898 0,0.113126 0.0312362,0.0312362 0.0818898,0.0312362 0.113126,0l1.75363 -1.75363c0.0312362,-0.0312362 0.0312362,-0.0818898 0,-0.113126 -0.0312362,-0.0312362 -0.0818898,-0.0312362 -0.113126,0l-1.75363 1.75363z"/>
   <path id="_621921424" class="fil1" d="M0.933331 3.33333c-0.0441811,0 -0.08,0.0358189 -0.08,0.08 0,0.0441811 0.0358189,0.08 0.08,0.08l2.48 0c0.0441811,0 0.08,-0.0358189 0.08,-0.08 0,-0.0441811 -0.0358189,-0.08 -0.08,-0.08l-2.48 0z"/>
   <path id="_431713112" class="fil1" d="M1.71627 1.60314c-0.0312362,-0.0312362 -0.0818898,-0.0312362 -0.113126,0 -0.0312362,0.0312362 -0.0312362,0.0818898 0,0.113126l1.75363 1.75363c0.0312362,0.0312362 0.0818898,0.0312362 0.113126,0 0.0312362,-0.0312362 0.0312362,-0.0818898 0,-0.113126l-1.75363 -1.75363z"/>
   <path id="_430177384" class="fil1" d="M2.70464 1.84986c0.0627205,0 0.11952,0.0254291 0.160626,0.0665433 0.0411102,0.0411063 0.0665433,0.0978976 0.0665433,0.160626 0,0.0627205 -0.0254291,0.11952 -0.0665433,0.160626 -0.0411063,0.0411142 -0.0979055,0.0665433 -0.160626,0.0665433 -0.0627283,0 -0.11952,-0.0254331 -0.160626,-0.0665433 -0.0411142,-0.0411063 -0.0665433,-0.0979055 -0.0665433,-0.160626 0,-0.0627283 0.0254331,-0.11952 0.0665433,-0.160626 0.0411063,-0.0411102 0.0978976,-0.0665433 0.160626,-0.0665433zm0.0852087 0.141961c-0.0217992,-0.0218031 -0.0519291,-0.0352913 -0.0852087,-0.0352913 -0.0332795,0 -0.0634094,0.0134882 -0.0852087,0.0352913 -0.0218031,0.0217992 -0.0352913,0.0519291 -0.0352913,0.0852087 0,0.0332795 0.0134882,0.0634094 0.0352913,0.0852087 0.0217992,0.0218031 0.0519291,0.0352913 0.0852087,0.0352913 0.0332795,0 0.0634094,-0.0134882 0.0852087,-0.0352913 0.0218031,-0.0217992 0.0352913,-0.0519291 0.0352913,-0.0852087 0,-0.0332795 -0.0134882,-0.0634094 -0.0352913,-0.0852087z"/>
   <path id="_430177288" class="fil1" d="M3.77283 2.26566c0.0627283,0 0.11952,0.0254331 0.160626,0.0665433 0.0411102,0.0411063 0.0665433,0.0978976 0.0665433,0.160626 0,0.0627205 -0.0254291,0.11952 -0.0665433,0.160626 -0.0411063,0.0411102 -0.0978976,0.0665433 -0.160626,0.0665433 -0.0627205,0 -0.11952,-0.0254291 -0.160626,-0.0665433 -0.0411142,-0.0411063 -0.0665433,-0.0979055 -0.0665433,-0.160626 0,-0.0627283 0.0254331,-0.11952 0.0665433,-0.160626 0.0411063,-0.0411142 0.0979055,-0.0665433 0.160626,-0.0665433zm0.0852087 0.141961c-0.0217992,-0.0218031 -0.0519291,-0.0352913 -0.0852087,-0.0352913 -0.0332795,0 -0.0634094,0.0134882 -0.0852087,0.0352913 -0.0218031,0.0217992 -0.0352913,0.0519291 -0.0352913,0.0852087 0,0.0332795 0.0134882,0.0634094 0.0352913,0.0852087 0.0217992,0.0218031 0.0519291,0.0352913 0.0852087,0.0352913 0.0332795,0 0.0634094,-0.0134882 0.0852087,-0.0352913 0.0218031,-0.0217992 0.0352913,-0.0519291 0.0352913,-0.0852087 0,-0.0332795 -0.0134882,-0.0634094 -0.0352913,-0.0852087z"/>
   <path id="_430177072" class="fil1" d="M4.80502 2.69533c0.0627283,0 0.11952,0.0254331 0.160626,0.0665433 0.0411102,0.0411063 0.0665433,0.0978976 0.0665433,0.160626 0,0.0627205 -0.0254291,0.11952 -0.0665433,0.160626 -0.0411063,0.0411102 -0.0978976,0.0665433 -0.160626,0.0665433 -0.0627205,0 -0.11952,-0.0254291 -0.160626,-0.0665433 -0.0411142,-0.0411063 -0.0665433,-0.0979055 -0.0665433,-0.160626 0,-0.0627283 0.0254331,-0.11952 0.0665433,-0.160626 0.0411063,-0.0411142 0.0979055,-0.0665433 0.160626,-0.0665433zm0.0852087 0.141961c-0.0217992,-0.0218031 -0.0519291,-0.0352913 -0.0852087,-0.0352913 -0.0332795,0 -0.0634094,0.0134882 -0.0852087,0.0352913 -0.0218031,0.0217992 -0.0352913,0.0519291 -0.0352913,0.0852087 0,0.0332795 0.0134882,0.0634094 0.0352913,0.0852087 0.0217992,0.0218031 0.0519291,0.0352913 0.0852087,0.0352913 0.0332795,0 0.0634094,-0.0134882 0.0852087,-0.0352913 0.0218031,-0.0217992 0.0352913,-0.0519291 0.0352913,-0.0852087 0,-0.0332795 -0.0134882,-0.0634094 -0.0352913,-0.0852087z"/>
   <path id="_430177552" class="fil1" d="M4.65383 3.54566c0.0627283,0 0.11952,0.0254331 0.160626,0.0665433 0.0411142,0.0411063 0.0665433,0.0979055 0.0665433,0.160626 0,0.0627283 -0.0254331,0.11952 -0.0665433,0.160626 -0.0411063,0.0411102 -0.0978976,0.0665433 -0.160626,0.0665433 -0.0627205,0 -0.11952,-0.0254291 -0.160626,-0.0665433 -0.0411102,-0.0411063 -0.0665433,-0.0978976 -0.0665433,-0.160626 0,-0.0627205 0.0254291,-0.11952 0.0665433,-0.160626 0.0411063,-0.0411142 0.0979055,-0.0665433 0.160626,-0.0665433zm0.0852087 0.141961c-0.0217992,-0.0218031 -0.0519291,-0.0352913 -0.0852087,-0.0352913 -0.0332795,0 -0.0634094,0.0134882 -0.0852087,0.0352913 -0.0218031,0.0217992 -0.0352913,0.0519291 -0.0352913,0.0852087 0,0.0332795 0.0134882,0.0634094 0.0352913,0.0852087 0.0217992,0.0218031 0.0519291,0.0352913 0.0852087,0.0352913 0.0332795,0 0.0634094,-0.0134882 0.0852087,-0.0352913 0.0218031,-0.0217992 0.0352913,-0.0519291 0.0352913,-0.0852087 0,-0.0332795 -0.0134882,-0.0634094 -0.0352913,-0.0852087z"/>
   <path id="_430177048" class="fil1" d="M3.8005 4.07899c0.0627283,0 0.11952,0.0254331 0.160626,0.0665433 0.0411142,0.0411063 0.0665433,0.0979055 0.0665433,0.160626 0,0.0627283 -0.0254331,0.11952 -0.0665433,0.160626 -0.0411063,0.0411102 -0.0978976,0.0665433 -0.160626,0.0665433 -0.0627205,0 -0.11952,-0.0254291 -0.160626,-0.0665433 -0.0411102,-0.0411063 -0.0665433,-0.0978976 -0.0665433,-0.160626 0,-0.0627205 0.0254291,-0.11952 0.0665433,-0.160626 0.0411063,-0.0411142 0.0979055,-0.0665433 0.160626,-0.0665433zm0.0852087 0.141961c-0.0217992,-0.0218031 -0.0519291,-0.0352913 -0.0852087,-0.0352913 -0.0332795,0 -0.0634094,0.0134882 -0.0852087,0.0352913 -0.0218031,0.0217992 -0.0352913,0.0519291 -0.0352913,0.0852087 0,0.0332795 0.0134882,0.0634094 0.0352913,0.0852087 0.0217992,0.0218031 0.0519291,0.0352913 0.0852087,0.0352913 0.0332795,0 0.0634094,-0.0134882 0.0852087,-0.0352913 0.0218031,-0.0217992 0.0352913,-0.0519291 0.0352913,-0.0852087 0,-0.0332795 -0.0134882,-0.0634094 -0.0352913,-0.0852087z"/>
   <path id="_430177528" class="fil1" d="M2.70617 4.50566c0.0627205,0 0.11952,0.0254291 0.160626,0.0665433 0.0411142,0.0411063 0.0665433,0.0979055 0.0665433,0.160626 0,0.0627283 -0.0254331,0.11952 -0.0665433,0.160626 -0.0411063,0.0411142 -0.0979055,0.0665433 -0.160626,0.0665433 -0.0627283,0 -0.11952,-0.0254331 -0.160626,-0.0665433 -0.0411102,-0.0411063 -0.0665433,-0.0978976 -0.0665433,-0.160626 0,-0.0627205 0.0254291,-0.11952 0.0665433,-0.160626 0.0411063,-0.0411102 0.0978976,-0.0665433 0.160626,-0.0665433zm0.0852087 0.141961c-0.0217992,-0.0218031 -0.0519291,-0.0352913 -0.0852087,-0.0352913 -0.0332795,0 -0.0634094,0.0134882 -0.0852087,0.0352913 -0.0218031,0.0217992 -0.0352913,0.0519291 -0.0352913,0.0852087 0,0.0332795 0.0134882,0.0634094 0.0352913,0.0852087 0.0217992,0.0218031 0.0519291,0.0352913 0.0852087,0.0352913 0.0332795,0 0.0634094,-0.0134882 0.0852087,-0.0352913 0.0218031,-0.0217992 0.0352913,-0.0519291 0.0352913,-0.0852087 0,-0.0332795 -0.0134882,-0.0634094 -0.0352913,-0.0852087z"/>
   <path id="_430177336" class="fil1" d="M2.5205 3.54566c0.0627205,0 0.11952,0.0254291 0.160626,0.0665433 0.0411142,0.0411063 0.0665433,0.0979055 0.0665433,0.160626 0,0.0627283 -0.0254331,0.11952 -0.0665433,0.160626 -0.0411063,0.0411142 -0.0979055,0.0665433 -0.160626,0.0665433 -0.0627283,0 -0.11952,-0.0254331 -0.160626,-0.0665433 -0.0411102,-0.0411063 -0.0665433,-0.0978976 -0.0665433,-0.160626 0,-0.0627205 0.0254291,-0.11952 0.0665433,-0.160626 0.0411063,-0.0411102 0.0978976,-0.0665433 0.160626,-0.0665433zm0.0852087 0.141961c-0.0217992,-0.0218031 -0.0519291,-0.0352913 -0.0852087,-0.0352913 -0.0332795,0 -0.0634094,0.0134882 -0.0852087,0.0352913 -0.0218031,0.0217992 -0.0352913,0.0519291 -0.0352913,0.0852087 0,0.0332795 0.0134882,0.0634094 0.0352913,0.0852087 0.0217992,0.0218031 0.0519291,0.0352913 0.0852087,0.0352913 0.0332795,0 0.0634094,-0.0134882 0.0852087,-0.0352913 0.0218031,-0.0217992 0.0352913,-0.0519291 0.0352913,-0.0852087 0,-0.0332795 -0.0134882,-0.0634094 -0.0352913,-0.0852087z"/>
   <path id="_430177120" class="fil1" d="M1.8805 2.79899c0.0627205,0 0.11952,0.0254291 0.160626,0.0665433 0.0411102,0.0411063 0.0665433,0.0978976 0.0665433,0.160626 0,0.0627205 -0.0254291,0.11952 -0.0665433,0.160626 -0.0411063,0.0411142 -0.0979055,0.0665433 -0.160626,0.0665433 -0.0627283,0 -0.11952,-0.0254331 -0.160626,-0.0665433 -0.0411142,-0.0411063 -0.0665433,-0.0979055 -0.0665433,-0.160626 0,-0.0627283 0.0254331,-0.11952 0.0665433,-0.160626 0.0411063,-0.0411102 0.0978976,-0.0665433 0.160626,-0.0665433zm0.0852087 0.141961c-0.0217992,-0.0218031 -0.0519291,-0.0352913 -0.0852087,-0.0352913 -0.0332795,0 -0.0634094,0.0134882 -0.0852087,0.0352913 -0.0218031,0.0217992 -0.0352913,0.0519291 -0.0352913,0.0852087 0,0.0332795 0.0134882,0.0634094 0.0352913,0.0852087 0.0217992,0.0218031 0.0519291,0.0352913 0.0852087,0.0352913 0.0332795,0 0.0634094,-0.0134882 0.0852087,-0.0352913 0.0218031,-0.0217992 0.0352913,-0.0519291 0.0352913,-0.0852087 0,-0.0332795 -0.0134882,-0.0634094 -0.0352913,-0.0852087z"/>
   <path id="_430177720" class="fil1" d="M3.82385 1.90554c0.0542638,0.0840039 0.166217,0.228902 0.252516,0.152378 0.0223661,-0.0198307 0.0313504,-0.0380354 0.0302913,-0.0536142 -0.00084252,-0.012374 -0.00772835,-0.0252717 -0.0190669,-0.0376496 -0.0145118,-0.0158386 -0.0355709,-0.0301575 -0.0610157,-0.0417441 -0.056689,-0.025811 -0.131299,-0.0362087 -0.202724,-0.0193701zm0.322933 0.231961c-0.20698,0.183543 -0.422106,-0.187382 -0.446303,-0.230894 -0.00141732,-0.00212992 -0.00270079,-0.00438976 -0.00382677,-0.00677165 -0.0125984,-0.026622 -0.00123228,-0.0584213 0.0253898,-0.0710197l0.022815 0.0482047 -0.0227087 -0.048126c0.116622,-0.0551929 0.252063,-0.0446024 0.348591,-0.000653543 0.0380354,0.0173189 0.0708543,0.040189 0.0951811,0.0667441 0.0275,0.0300197 0.0444409,0.0647756 0.0469882,0.102232 0.00324016,0.0475591 -0.0162559,0.0960591 -0.066126,0.140283z"/>
   <path id="_430177696" class="fil1" d="M4.38304 3.12498c-0.0396811,-0.0582323 -0.105575,-0.13524 -0.154098,-0.0922126 -0.0129055,0.0114449 -0.0181614,0.0209173 -0.0176654,0.0282323 0.000397638,0.00585039 0.00416929,0.0125079 0.0104213,0.0193346 0.00942126,0.0102874 0.0234291,0.0197402 0.0405669,0.0275394 0.0340984,0.0155276 0.0775472,0.0230157 0.120776,0.0171063zm-0.224516 -0.171795c0.164736,-0.146075 0.331154,0.138697 0.350823,0.173933 0.00120472,0.00188189 0.00230315,0.00387008 0.00328346,0.00594488 0.0125984,0.026622 0.00123228,0.0584213 -0.0253898,0.0710197l-0.022815 -0.0482047 0.0227087 0.048126c-0.0900354,0.0426102 -0.194563,0.0344488 -0.269035,0.00053937 -0.0297244,-0.0135315 -0.0554921,-0.0315354 -0.0747323,-0.0525394 -0.0224173,-0.0244646 -0.0362323,-0.0529921 -0.0383425,-0.0839173 -0.0026811,-0.0392953 0.0130906,-0.079063 0.0535,-0.114902z"/>
   <path id="_430177144" class="fil1" d="M3.81472 4.85504c0.0396811,0.0582323 0.105575,0.13524 0.154098,0.0922126 0.0129055,-0.0114449 0.0181614,-0.0209173 0.0176654,-0.0282323 -0.000397638,-0.00585039 -0.00416929,-0.0125079 -0.0104213,-0.0193346 -0.00942126,-0.0102874 -0.0234291,-0.0197402 -0.0405669,-0.0275394 -0.0340984,-0.0155276 -0.0775472,-0.0230157 -0.120776,-0.0171063zm0.224516 0.171795c-0.164736,0.146075 -0.331154,-0.138697 -0.350823,-0.173933 -0.00120472,-0.00188189 -0.00230315,-0.00387008 -0.00328346,-0.00594488 -0.0125984,-0.026622 -0.00123228,-0.0584213 0.0253898,-0.0710197l0.022815 0.0482047 -0.0227087 -0.048126c0.0900354,-0.0426102 0.194563,-0.0344488 0.269035,-0.00053937 0.0297244,0.0135315 0.0554921,0.0315354 0.0747323,0.0525394 0.0224173,0.0244685 0.0362323,0.0529921 0.0383425,0.0839173 0.0026811,0.0392953 -0.0130866,0.0790591 -0.0535,0.114902z"/>
   <path id="_430176424" class="fil1" d="M2.15861 4.21161c-0.0396811,-0.0582323 -0.105575,-0.13524 -0.154098,-0.0922126 -0.0129055,0.0114449 -0.0181614,0.0209134 -0.0176654,0.0282323 0.000397638,0.00584646 0.00416929,0.0125079 0.0104213,0.0193346 0.00942126,0.0102874 0.0234291,0.0197402 0.0405669,0.0275394 0.0340984,0.0155276 0.0775472,0.0230157 0.120776,0.0171063zm-0.224516 -0.171795c0.164736,-0.146075 0.331154,0.138697 0.350823,0.173933 0.00120472,0.00188189 0.00230315,0.00387008 0.00328346,0.00594488 0.0125984,0.026622 0.00123228,0.0584213 -0.0253898,0.0710197l-0.022815 -0.0482047 0.0227087 0.048126c-0.0900354,0.0426102 -0.194563,0.0344488 -0.269035,0.00053937 -0.0297244,-0.0135315 -0.0554921,-0.0315354 -0.0747323,-0.0525394 -0.0224173,-0.0244646 -0.0362323,-0.0529882 -0.0383425,-0.0839173 -0.0026811,-0.0392953 0.0130866,-0.0790591 0.0535,-0.114902z"/>
   <path id="_430176976" class="fil1" d="M2.54829 3.0417c0.0396811,0.0582323 0.105575,0.13524 0.154098,0.0922126 0.0129055,-0.0114449 0.0181614,-0.0209134 0.0176654,-0.0282323 -0.000397638,-0.00584646 -0.00416929,-0.0125079 -0.0104213,-0.0193346 -0.00942126,-0.0102874 -0.0234291,-0.0197402 -0.0405669,-0.0275394 -0.0340984,-0.0155276 -0.0775472,-0.0230157 -0.120776,-0.0171063zm0.224516 0.171795c-0.164736,0.146075 -0.331154,-0.138697 -0.350823,-0.173933 -0.00120472,-0.00188189 -0.00230315,-0.00387008 -0.00328346,-0.00594488 -0.0125984,-0.026622 -0.00123228,-0.0584213 0.0253898,-0.0710197l0.022815 0.0482047 -0.0227087 -0.048126c0.0900354,-0.0426102 0.194563,-0.0344488 0.269035,-0.00053937 0.0297244,0.0135315 0.0554921,0.0315354 0.0747323,0.0525394 0.0224173,0.0244646 0.0362323,0.0529882 0.0383425,0.0839173 0.0026811,0.0392953 -0.0130866,0.0790591 -0.0535,0.114902z"/>
   <path id="_430176376" class="fil1" d="M2.11426 2.4423c-0.0171417,-0.023815 -0.0503504,-0.0292283 -0.0741654,-0.0120866 -0.023815,0.0171417 -0.0292283,0.0503504 -0.0120866,0.0741654l0.0830276 0.115681c0.0171417,0.023815 0.0503504,0.0292283 0.0741654,0.0120866 0.023815,-0.0171417 0.0292283,-0.0503504 0.0120866,-0.0741654l-0.0830276 -0.115681z"/>
   <path id="_430176856" class="fil1" d="M4.24849 3.72545c0.0218583,-0.0195591 0.0237244,-0.0531417 0.00416535,-0.075 -0.0195591,-0.0218583 -0.0531417,-0.0237244 -0.075,-0.00416535l-0.106154 0.0949055c-0.0218583,0.0195591 -0.0237244,0.0531417 -0.00416535,0.075 0.0195591,0.0218583 0.0531417,0.0237244 0.075,0.00416535l0.106154 -0.0949055z"/>
   <path id="_430176520" class="fil1" d="M4.72824 2.50467c0.0218583,-0.0195591 0.0237244,-0.0531417 0.00416535,-0.075 -0.0195591,-0.0218583 -0.0531417,-0.0237244 -0.075,-0.00416535l-0.106154 0.0949055c-0.0218583,0.0195591 -0.0237244,0.0531417 -0.00416535,0.075 0.0195591,0.0218583 0.0531417,0.0237244 0.075,0.00416535l0.106154 -0.0949055z"/>
   <path id="_430176616" class="fil1" d="M4.32386 4.68949c0.0218583,-0.0195591 0.0237244,-0.0531417 0.00416535,-0.075 -0.0195591,-0.0218583 -0.0531417,-0.0237244 -0.075,-0.00416535l-0.106154 0.0949055c-0.0218583,0.0195591 -0.0237244,0.0531417 -0.00416535,0.075 0.0195591,0.0218583 0.0531417,0.0237244 0.075,0.00416535l0.106154 -0.0949055z"/>
   <path id="_430176832" class="fil1" d="M3.1052 4.84602c-0.0218583,-0.0195591 -0.0554409,-0.0176929 -0.075,0.00416535 -0.0195591,0.0218583 -0.0176929,0.0554409 0.00416535,0.075l0.106154 0.0949055c0.0218583,0.0195591 0.0554409,0.0176929 0.075,-0.00416535 0.0195591,-0.0218583 0.0176929,-0.0554409 -0.00416535,-0.075l-0.106154 -0.0949055z"/>
   <path id="_430176640" class="fil1" d="M3.13646 1.87994c-0.0171417,-0.023815 -0.0503504,-0.0292283 -0.0741654,-0.0120866 -0.023815,0.0171417 -0.0292283,0.0503504 -0.0120866,0.0741654l0.0830276 0.115681c0.0171417,0.023815 0.0503504,0.0292283 0.0741654,0.0120866 0.023815,-0.0171417 0.0292283,-0.0503504 0.0120866,-0.0741654l-0.0830276 -0.115681z"/>
   <path id="_430176448" class="fil1" d="M3.14667 2.4153c0,-0.0294528 -0.0238819,-0.0533346 -0.0533346,-0.0533346 -0.0294528,0 -0.0533346,0.0238819 -0.0533346,0.0533346 0,0.0659331 -0.012752,0.0778465 -0.0253819,0.0896417 -0.0293268,0.0273937 -0.0584055,0.0545433 -0.0584055,0.161724 0,0.0294528 0.0238819,0.0533346 0.0533346,0.0533346 0.0294528,0 0.0533346,-0.0238819 0.0533346,-0.0533346 0,-0.0611772 0.0120669,-0.0724488 0.0242323,-0.083811 0.0296378,-0.0276772 0.0595551,-0.055626 0.0595551,-0.167555z"/>
   <path id="_430176688" class="fil1" d="M2.4 2.77333c0,-0.0294528 -0.0238819,-0.0533346 -0.0533346,-0.0533346 -0.0294528,0 -0.0533346,0.0238819 -0.0533346,0.0533346 0,0.0659331 -0.012752,0.0778465 -0.0253819,0.0896417 -0.0293268,0.0273937 -0.0584055,0.0545433 -0.0584055,0.161724 0,0.0294528 0.0238819,0.0533346 0.0533346,0.0533346 0.0294528,0 0.0533346,-0.0238819 0.0533346,-0.0533346 0,-0.0611772 0.0120669,-0.0724488 0.0242323,-0.083811 0.0296378,-0.0276772 0.0595551,-0.055626 0.0595551,-0.167555z"/>
   <path id="_430175824" class="fil1" d="M1.78485 3.62214c-0.0257717,-0.0140354 -0.0580472,-0.00452362 -0.0720827,0.021248 -0.0140354,0.0257717 -0.00452362,0.0580472 0.021248,0.0720827 0.0984331,0.0537717 0.137051,0.041 0.175299,0.0283425 0.016063,-0.00531496 0.0319843,-0.0105827 0.0854685,0.0186339 0.0257717,0.0140354 0.0580472,0.00452362 0.0720827,-0.021248 0.0140354,-0.0257717 0.00452362,-0.0580472 -0.021248,-0.0720827 -0.0942638,-0.0514921 -0.13178,-0.0390787 -0.169634,-0.0265551 -0.0166575,0.00551181 -0.0334803,0.0110748 -0.0911339,-0.0204213z"/>
   <path id="_430175488" class="fil1" d="M2.98841 4.19467c-0.0257717,-0.0140354 -0.0580472,-0.00452362 -0.0720827,0.021248 -0.0140354,0.0257717 -0.00452362,0.0580472 0.021248,0.0720827 0.105559,0.0576654 0.139047,0.0362638 0.172209,0.0150551 0.0063622,-0.00406693 0.0126811,-0.00810236 0.0590354,0.0172205 0.0257717,0.0140354 0.0580472,0.00452362 0.0720827,-0.021248 0.0140354,-0.0257717 0.00452362,-0.0580472 -0.021248,-0.0720827 -0.10139,-0.0553858 -0.134028,-0.0345236 -0.166949,-0.0134724 -0.00684646,0.00437795 -0.0137717,0.00879921 -0.0642953,-0.0188031z"/>
   <path id="_430176088" class="fil1" d="M4.83046 4.12196c0,-0.0294528 -0.0238819,-0.0533346 -0.0533346,-0.0533346 -0.0294528,0 -0.0533346,0.0238819 -0.0533346,0.0533346 0,0.0659331 -0.012752,0.0778465 -0.0253819,0.0896417 -0.0293268,0.0273937 -0.0584055,0.0545433 -0.0584055,0.161724 0,0.0294528 0.0238819,0.0533346 0.0533346,0.0533346 0.0294528,0 0.0533346,-0.0238819 0.0533346,-0.0533346 0,-0.0611772 0.0120669,-0.0724488 0.0242323,-0.083811 0.0296378,-0.0276772 0.0595551,-0.055626 0.0595551,-0.167555z"/>
  </g>
  <path class="fil2" d="M3.49333 1.4149c0.491969,0.0193543 0.93828,0.216421 1.27652,0.528783l0.283039 -0.283039c-0.410913,-0.384547 -0.957161,-0.626272 -1.55956,-0.646004l0 0.40026z"/>
  <path class="fil2" d="M4.88298 2.05681c0.312362,0.338244 0.509429,0.784555 0.528783,1.27652l0.40026 0c-0.0197323,-0.602402 -0.261457,-1.14865 -0.646004,-1.55956l-0.283039 0.283039z"/>
  <path class="fil2" d="M5.41176 3.49333c-0.0193543,0.491969 -0.216421,0.93828 -0.528783,1.27652l0.283039 0.283039c0.384547,-0.410913 0.626272,-0.957161 0.646004,-1.55956l-0.40026 0z"/>
  <path class="fil2" d="M4.76985 4.88298c-0.338244,0.312362 -0.784555,0.509429 -1.27652,0.528783l0 0.40026c0.602402,-0.0197323 1.14865,-0.261457 1.55956,-0.646004l-0.283039 -0.283039z"/>
  <path class="fil2" d="M3.33333 5.41176c-0.491969,-0.0193543 -0.93828,-0.216421 -1.27652,-0.528783l-0.283039 0.283039c0.410913,0.384547 0.957161,0.626272 1.55956,0.646004l0 -0.40026z"/>
  <path class="fil2" d="M1.94368 4.76985c-0.312362,-0.338244 -0.509429,-0.784555 -0.528783,-1.27652l-0.40026 0c0.0197323,0.602402 0.261457,1.14865 0.646004,1.55956l0.283039 -0.283039z"/>
  <path class="fil2" d="M1.4149 3.33333c0.0193543,-0.491969 0.216421,-0.93828 0.528783,-1.27652l-0.283039 -0.283039c-0.384547,0.410913 -0.626272,0.957161 -0.646004,1.55956l0.40026 0z"/>
  <path class="fil2" d="M2.05681 1.94368c0.338244,-0.312362 0.784555,-0.509429 1.27652,-0.528783l0 -0.40026c-0.602402,0.0197323 -1.14865,0.261457 -1.55956,0.646004l0.283039 0.283039z"/>
  <path class="fil0" d="M3.33333 5.25163l0 -1.64517 -1.1633 1.1633c0.309134,0.283508 0.715488,0.462717 1.1633,0.48187zm-0.417008 -1.03571c0.0140354,-0.0257717 0.046311,-0.0352835 0.0720827,-0.021248 0.0505236,0.0276024 0.0574488,0.0231811 0.0642953,0.0188031 0.0329213,-0.0210512 0.0655591,-0.0419134 0.166949,0.0134724 0.0257717,0.0140354 0.0352835,0.046311 0.021248,0.0720827 -0.0140354,0.0257717 -0.046311,0.0352835 -0.0720827,0.021248 -0.0463543,-0.0253228 -0.0526732,-0.0212874 -0.0590354,-0.0172205 -0.0331614,0.0212087 -0.0666496,0.0426102 -0.172209,-0.0150551 -0.0257717,-0.0140354 -0.0352835,-0.046311 -0.021248,-0.0720827zm0.113874 0.634272c0.0195591,-0.0218583 0.0531417,-0.0237244 0.075,-0.00416535l0.106154 0.0949055c0.0218583,0.0195591 0.0237244,0.0531417 0.00416535,0.075 -0.0195591,0.0218583 -0.0531417,0.0237244 -0.075,0.00416535l-0.106154 -0.0949055c-0.0218583,-0.0195591 -0.0237244,-0.0531417 -0.00416535,-0.075zm-0.324031 -0.344531c0.0627205,0 0.11952,0.0254291 0.160626,0.0665433 0.0411142,0.0411063 0.0665433,0.0979055 0.0665433,0.160626 0,0.0627283 -0.0254331,0.11952 -0.0665433,0.160626 -0.0411063,0.0411142 -0.0979055,0.0665433 -0.160626,0.0665433 -0.0627283,0 -0.11952,-0.0254331 -0.160626,-0.0665433 -0.0411102,-0.0411063 -0.0665433,-0.0978976 -0.0665433,-0.160626 0,-0.0627205 0.0254291,-0.11952 0.0665433,-0.160626 0.0411063,-0.0411102 0.0978976,-0.0665433 0.160626,-0.0665433z"/>
  <path class="fil3" d="M1.8805 3.14666c0.0332795,0 0.0634094,-0.0134882 0.0852087,-0.0352913 0.0218031,-0.0217992 0.0352913,-0.0519291 0.0352913,-0.0852087 0,-0.0332795 -0.0134882,-0.0634094 -0.0352913,-0.0852087 -0.0217992,-0.0218031 -0.0519291,-0.0352913 -0.0852087,-0.0352913 -0.0332795,0 -0.0634094,0.0134882 -0.0852087,0.0352913 -0.0218031,0.0217992 -0.0352913,0.0519291 -0.0352913,0.0852087 0,0.0332795 0.0134882,0.0634094 0.0352913,0.0852087 0.0217992,0.0218031 0.0519291,0.0352913 0.0852087,0.0352913z"/>
  <path class="fil4" d="M2.54829 3.0417c0.0396811,0.0582323 0.105575,0.13524 0.154098,0.0922126 0.0129055,-0.0114449 0.0181614,-0.0209134 0.0176654,-0.0282323 -0.000397638,-0.00584646 -0.00416929,-0.0125079 -0.0104213,-0.0193346 -0.00942126,-0.0102874 -0.0234291,-0.0197402 -0.0405669,-0.0275394 -0.0340984,-0.0155276 -0.0775472,-0.0230157 -0.120776,-0.0171063z"/>
  <path class="fil3" d="M2.70464 2.19753c0.0332795,0 0.0634094,-0.0134882 0.0852087,-0.0352913 0.0218031,-0.0217992 0.0352913,-0.0519291 0.0352913,-0.0852087 0,-0.0332795 -0.0134882,-0.0634094 -0.0352913,-0.0852087 -0.0217992,-0.0218031 -0.0519291,-0.0352913 -0.0852087,-0.0352913 -0.0332795,0 -0.0634094,0.0134882 -0.0852087,0.0352913 -0.0218031,0.0217992 -0.0352913,0.0519291 -0.0352913,0.0852087 0,0.0332795 0.0134882,0.0634094 0.0352913,0.0852087 0.0217992,0.0218031 0.0519291,0.0352913 0.0852087,0.0352913z"/>
  <path class="fil4" d="M3.82385 1.90554c0.0542638,0.0840039 0.166217,0.228902 0.252516,0.152378 0.0223661,-0.0198307 0.0313504,-0.0380354 0.0302913,-0.0536142 -0.00084252,-0.012374 -0.00772835,-0.0252717 -0.0190669,-0.0376496 -0.0145118,-0.0158386 -0.0355709,-0.0301575 -0.0610157,-0.0417441 -0.056689,-0.025811 -0.131299,-0.0362087 -0.202724,-0.0193701z"/>
  <path class="fil3" d="M3.85804 2.40762c-0.0217992,-0.0218031 -0.0519291,-0.0352913 -0.0852087,-0.0352913 -0.0332795,0 -0.0634094,0.0134882 -0.0852087,0.0352913 -0.0218031,0.0217992 -0.0352913,0.0519291 -0.0352913,0.0852087 0,0.0332795 0.0134882,0.0634094 0.0352913,0.0852087 0.0217992,0.0218031 0.0519291,0.0352913 0.0852087,0.0352913 0.0332795,0 0.0634094,-0.0134882 0.0852087,-0.0352913 0.0218031,-0.0217992 0.0352913,-0.0519291 0.0352913,-0.0852087 0,-0.0332795 -0.0134882,-0.0634094 -0.0352913,-0.0852087z"/>
  <path class="fil3" d="M4.71981 2.83729c-0.0218031,0.0217992 -0.0352913,0.0519291 -0.0352913,0.0852087 0,0.0332795 0.0134882,0.0634094 0.0352913,0.0852087 0.0217992,0.0218031 0.0519291,0.0352913 0.0852087,0.0352913 0.0332795,0 0.0634094,-0.0134882 0.0852087,-0.0352913 0.0218031,-0.0217992 0.0352913,-0.0519291 0.0352913,-0.0852087 0,-0.0332795 -0.0134882,-0.0634094 -0.0352913,-0.0852087 -0.0217992,-0.0218031 -0.0519291,-0.0352913 -0.0852087,-0.0352913 -0.0332795,0 -0.0634094,0.0134882 -0.0852087,0.0352913z"/>
  <path class="fil4" d="M4.38304 3.12498c-0.0396811,-0.0582323 -0.105575,-0.13524 -0.154098,-0.0922126 -0.0129055,0.0114449 -0.0181614,0.0209173 -0.0176654,0.0282323 0.000397638,0.00585039 0.00416929,0.0125079 0.0104213,0.0193346 0.00942126,0.0102874 0.0234291,0.0197402 0.0405669,0.0275394 0.0340984,0.0155276 0.0775472,0.0230157 0.120776,0.0171063z"/>
  <path class="fil3" d="M4.65383 3.65233c-0.0332795,0 -0.0634094,0.0134882 -0.0852087,0.0352913 -0.0218031,0.0217992 -0.0352913,0.0519291 -0.0352913,0.0852087 0,0.0332795 0.0134882,0.0634094 0.0352913,0.0852087 0.0217992,0.0218031 0.0519291,0.0352913 0.0852087,0.0352913 0.0332795,0 0.0634094,-0.0134882 0.0852087,-0.0352913 0.0218031,-0.0217992 0.0352913,-0.0519291 0.0352913,-0.0852087 0,-0.0332795 -0.0134882,-0.0634094 -0.0352913,-0.0852087 -0.0217992,-0.0218031 -0.0519291,-0.0352913 -0.0852087,-0.0352913z"/>
  <path class="fil3" d="M3.88571 4.22095c-0.0217992,-0.0218031 -0.0519291,-0.0352913 -0.0852087,-0.0352913 -0.0332795,0 -0.0634094,0.0134882 -0.0852087,0.0352913 -0.0218031,0.0217992 -0.0352913,0.0519291 -0.0352913,0.0852087 0,0.0332795 0.0134882,0.0634094 0.0352913,0.0852087 0.0217992,0.0218031 0.0519291,0.0352913 0.0852087,0.0352913 0.0332795,0 0.0634094,-0.0134882 0.0852087,-0.0352913 0.0218031,-0.0217992 0.0352913,-0.0519291 0.0352913,-0.0852087 0,-0.0332795 -0.0134882,-0.0634094 -0.0352913,-0.0852087z"/>
  <path class="fil4" d="M3.97606 4.89968c-0.00942126,-0.0102874 -0.0234291,-0.0197402 -0.0405669,-0.0275394 -0.0340984,-0.0155276 -0.0775472,-0.0230157 -0.120776,-0.0171063 0.0396811,0.0582323 0.105575,0.13524 0.154098,0.0922126 0.0129055,-0.0114449 0.0181614,-0.0209173 0.0176654,-0.0282323 -0.000397638,-0.00585039 -0.00416929,-0.0125079 -0.0104213,-0.0193346z"/>
  <path class="fil3" d="M2.79137 4.81804c0.0218031,-0.0217992 0.0352913,-0.0519291 0.0352913,-0.0852087 0,-0.0332795 -0.0134882,-0.0634094 -0.0352913,-0.0852087 -0.0217992,-0.0218031 -0.0519291,-0.0352913 -0.0852087,-0.0352913 -0.0332795,0 -0.0634094,0.0134882 -0.0852087,0.0352913 -0.0218031,0.0217992 -0.0352913,0.0519291 -0.0352913,0.0852087 0,0.0332795 0.0134882,0.0634094 0.0352913,0.0852087 0.0217992,0.0218031 0.0519291,0.0352913 0.0852087,0.0352913 0.0332795,0 0.0634094,-0.0134882 0.0852087,-0.0352913z"/>
  <path class="fil3" d="M2.5205 3.89333c0.0332795,0 0.0634094,-0.0134882 0.0852087,-0.0352913 0.0218031,-0.0217992 0.0352913,-0.0519291 0.0352913,-0.0852087 0,-0.0332795 -0.0134882,-0.0634094 -0.0352913,-0.0852087 -0.0217992,-0.0218031 -0.0519291,-0.0352913 -0.0852087,-0.0352913 -0.0332795,0 -0.0634094,0.0134882 -0.0852087,0.0352913 -0.0218031,0.0217992 -0.0352913,0.0519291 -0.0352913,0.0852087 0,0.0332795 0.0134882,0.0634094 0.0352913,0.0852087 0.0217992,0.0218031 0.0519291,0.0352913 0.0852087,0.0352913z"/>
  <path class="fil4" d="M2.15861 4.21161c-0.0396811,-0.0582323 -0.105575,-0.13524 -0.154098,-0.0922126 -0.0129055,0.0114449 -0.0181614,0.0209134 -0.0176654,0.0282323 0.000397638,0.00584646 0.00416929,0.0125079 0.0104213,0.0193346 0.00942126,0.0102874 0.0234291,0.0197402 0.0405669,0.0275394 0.0340984,0.0155276 0.0775472,0.0230157 0.120776,0.0171063z"/>
 </g>
 <rect class="fil5" width="6.82666" height="6.82666"/>
</svg>
