<?xml version="1.0" encoding="UTF-8"?>
<!DOCTYPE svg PUBLIC "-//W3C//DTD SVG 1.1//EN" "http://www.w3.org/Graphics/SVG/1.1/DTD/svg11.dtd">
<!-- Creator: CorelDRAW -->
<svg xmlns="http://www.w3.org/2000/svg" xml:space="preserve" width="6.82666in" height="6.82666in" style="shape-rendering:geometricPrecision; text-rendering:geometricPrecision; image-rendering:optimizeQuality; fill-rule:evenodd; clip-rule:evenodd"
viewBox="0 0 6.82666 6.82666"
 xmlns:xlink="http://www.w3.org/1999/xlink">
 <defs>
  <style type="text/css">
   <![CDATA[
    .fil2 {fill:none}
    .fil0 {fill:#F19A7B}
    .fil1 {fill:#333333;fill-rule:nonzero}
   ]]>
  </style>
 </defs>
 <g id="Layer_x0020_1">
  <metadata id="CorelCorpID_0Corel-Layer"/>
  <path class="fil0" d="M5.22207 3.23137c1.5748e-005,1.9685e-005 3.14961e-005,3.93701e-005 4.72441e-005,5.90551e-005 0.0244646,0.0324055 0.0207835,0.0787283 -0.00971654,0.106791l-0.0646417 0.0594724c0.0522008,0.0715197 0.103709,0.149925 0.151528,0.232413l0.0464646 -0.042748c0.0324449,-0.0298543 0.0829606,-0.0277559 0.112815,0.00468898 0.00344882,0.00374803 0.0064685,0.00773228 0.00906693,0.0119016 -0.0750787,-0.136587 -0.160709,-0.264307 -0.245563,-0.372579zm-1.60999 1.53094c-0.164299,-0.0314843 -0.32685,-0.0662835 -0.488098,-0.103346 -0.00968898,-0.00222835 -0.0193898,-0.00446457 -0.0291024,-0.00671654 -0.00122441,-0.000255906 -0.00244488,-0.00053937 -0.00366142,-0.000850394 -0.163701,-0.0379843 -0.330984,-0.0794685 -0.499957,-0.122717 -0.00356299,-0.00065748 -0.00708661,-0.00155906 -0.0105433,-0.00270079 -0.0076811,-0.0019685 -0.0153701,-0.00394094 -0.0230591,-0.00591732 -0.0964882,-0.0247913 -0.163921,-0.0429606 -0.231756,-0.0612323 -0.182268,-0.0490984 -0.366961,-0.0988504 -0.548012,-0.135063 -0.227815,-0.045563 -0.38222,-0.194531 -0.484213,-0.385272 -0.00885827,-0.0165669 -0.017311,-0.0334567 -0.0253701,-0.0506181 -0.00162598,-0.00299213 -0.00305118,-0.00606299 -0.00426378,-0.00919291 -0.0697126,-0.151929 -0.109224,-0.324661 -0.128535,-0.488063 -0.000748031,-0.00390157 -0.00120079,-0.00784646 -0.0013622,-0.0117992 -0.00961024,-0.0853583 -0.0137402,-0.167949 -0.0138307,-0.243449 -0.000141732,-0.119744 0.00884646,-0.24552 0.0281535,-0.370067 0.000275591,-0.00253937 0.000669291,-0.00506693 0.00118898,-0.0075748 0.00314173,-0.0198307 0.00654331,-0.039626 0.0102165,-0.0593583 0.0252047,-0.135457 0.0628858,-0.268173 0.114567,-0.388941 0.0277677,-0.0648898 0.0789843,-0.16628 0.144303,-0.245819 0.0507559,-0.0617992 0.111126,-0.111543 0.179429,-0.127575 0.0170157,-0.00399213 0.0342008,-0.00551181 0.0517008,-0.00501181 0.016063,0.00046063 0.0318228,0.00279134 0.0475472,0.00656299l0.291291 0.0699094c0.0035748,0.000606299 0.00711811,0.00145276 0.0105945,0.00254331l0.497016 0.119283c0.00355906,0.000602362 0.00708268,0.00144882 0.0105472,0.0025315l0.497008 0.119283c0.00358268,0.000602362 0.00712598,0.00145276 0.0106102,0.00254331l0.497004 0.119283c0.00356693,0.000602362 0.00710236,0.00144882 0.0105591,0.00253543l0.496996 0.11928c0.00358268,0.000602362 0.00713386,0.00145276 0.0106181,0.00254724l0.248819 0.0597165c0.083189,0.0199646 0.164063,0.0494567 0.242028,0.0863661 0.00237008,0.000992126 0.00470472,0.00210236 0.00698819,0.00333071 0.0724606,0.0347992 0.142378,0.0759764 0.20926,0.121839 0.0605787,0.0415354 0.118768,0.0869409 0.174173,0.134921 0.000937008,0.000775591 0.00185827,0.0015748 0.00276378,0.00239764 0.0924409,0.0803307 0.177087,0.167791 0.252091,0.256339 0.018063,0.0213228 0.0362795,0.0436575 0.0545315,0.0668976 -1.9685e-005,-2.3622e-005 -3.54331e-005,-4.72441e-005 -5.51181e-005,-7.08661e-005 -0.00101575,-0.00124409 -0.00207087,-0.00246457 -0.00317323,-0.00366142 -0.0298543,-0.0324449 -0.0803701,-0.0345433 -0.112815,-0.00468898l-0.0551929 0.0507756 -1.44268 1.32726 -0.0295709 0.0272047c-0.0324449,0.0298543 -0.0345433,0.0803701 -0.00468898,0.112815 0.0111142,0.0120787 0.0250906,0.0199528 0.0399331,0.0235354zm0.00754331 0.00144094c-0.0025315,-0.000358268 -0.00505118,-0.000838583 -0.00754331,-0.00144094 0.00251181,0.000480315 0.00502756,0.00096063 0.00754331,0.00144094zm0.542646 0.0869016c-0.192677,-0.0241299 -0.359736,-0.0529921 -0.465984,-0.0725315 -0.0255984,-0.00470472 -0.0511496,-0.00949606 -0.0766614,-0.0143701 0.0228898,0.00325197 0.047,-0.00341339 0.0653386,-0.0202874l0.117705 -0.108287 1.34509 -1.23748c0.0522008,0.0715197 0.103709,0.149925 0.151528,0.232413l-1.15013 1.05812 -0.0272047 0.0250276c-0.0324449,0.0298543 -0.0345433,0.0803701 -0.00468898,0.112815 0.0123701,0.0134449 0.0282913,0.0216811 0.0450039,0.0245866zm0.0076811 0.000956693c-0.00257087,-0.000192913 -0.0051378,-0.000511811 -0.0076811,-0.000956693 0.00255512,0.000318898 0.00511417,0.000641732 0.0076811,0.000956693zm1.30198 -1.23983c-0.00142913,-0.00261417 -0.00285827,-0.00522441 -0.00429134,-0.00783465 0.00158661,0.00254724 0.00301575,0.00516535 0.00429134,0.00783465zm0.151535 1.04194c-0.147563,0.18652 -0.486874,0.242602 -0.85015,0.240972 -0.00295276,0.000145669 -0.00590551,0.000129921 -0.00885433,-5.11811e-005 -0.0311654,-0.000216535 -0.0624961,-0.000858268 -0.0938898,-0.00187008 -0.170902,-0.00551181 -0.344008,-0.0217244 -0.500618,-0.0411693 0.0212953,0.00161811 0.0431772,-0.00525591 0.0601299,-0.0208543l0.12887 -0.118559 1.01831 -0.936843 0.076622 -0.0704921c0.0264094,-0.0242992 0.0327126,-0.0622874 0.0180472,-0.0930787 0.0313465,0.0574843 0.0607953,0.116492 0.0875079,0.176244 0.0379409,0.0848701 0.0704409,0.171386 0.0951772,0.257417 0.000625984,0.00191339 0.00117717,0.00384646 0.00165354,0.00579134 0.031874,0.112406 0.0504016,0.223909 0.0504016,0.329764 0,0.0459882 -0.00451575,0.0924961 -0.0166535,0.137988 -0.0127244,0.0477087 -0.0337756,0.093315 -0.0665512,0.13474zm-3.37391 -0.102957c0.661579,0.173185 1.7263,0.451906 2.52967,0.451906 0.590689,0 1.03411,-0.15239 1.03411,-0.621677 0,-0.350551 -0.194004,-0.816547 -0.500571,-1.20794 -0.269717,-0.344346 -0.624846,-0.628142 -1.00892,-0.720315l-2.58106 -0.619457c-0.209118,-0.050185 -0.389165,0.10839 -0.515449,0.365421 -0.0705591,0.143618 -0.124043,0.317677 -0.156949,0.505268 -0.0330591,0.188484 -0.0449409,0.389272 -0.0321299,0.585354 0.0352205,0.539035 0.256681,1.04267 0.738591,1.13905 0.106732,0.0213465 0.279185,0.0664921 0.492713,0.12239z"/>
  <g id="_625031672">
   <path id="_625032080" class="fil1" d="M1.75965 1.67828l2.58106 0.619457c0.422248,0.101335 0.807886,0.407228 1.09767,0.777189 0.327622,0.418276 0.534949,0.922098 0.534949,1.30607 0,0.590071 -0.512031,0.781677 -1.19411,0.781677 -0.82189,0 -1.89985,-0.282189 -2.56967,-0.457528 -0.206843,-0.0541457 -0.373902,-0.0978819 -0.483965,-0.119894 -0.567917,-0.113583 -0.827185,-0.680957 -0.866717,-1.28593 -0.0136654,-0.209161 -0.00108268,-0.422795 0.0340039,-0.622858 0.035248,-0.200949 0.0936142,-0.389591 0.171327,-0.547764 0.159386,-0.324402 0.400272,-0.52126 0.695449,-0.450421zm2.54419 0.774457l-2.58106 -0.619457c-0.209118,-0.050185 -0.389165,0.10839 -0.515449,0.365421 -0.0705591,0.143618 -0.124043,0.317677 -0.156949,0.505268 -0.0330591,0.188484 -0.0449409,0.389272 -0.0321299,0.585354 0.0352205,0.539035 0.256681,1.04267 0.738591,1.13905 0.106732,0.0213465 0.279185,0.0664921 0.492713,0.12239 0.661579,0.173185 1.7263,0.451906 2.52967,0.451906 0.590689,0 1.03411,-0.15239 1.03411,-0.621677 0,-0.350551 -0.194004,-0.816547 -0.500571,-1.20794 -0.269717,-0.344346 -0.624846,-0.628142 -1.00892,-0.720315z"/>
   <path id="_625032728" class="fil1" d="M1.66054 2.09259c-0.00529528,-0.00126772 -0.0103228,-0.00205118 -0.0150512,-0.00218504 -0.00329134,-9.44882e-005 -0.00694882,0.000291339 -0.0110709,0.00125591 -0.0296693,0.00696457 -0.0619803,0.0359803 -0.0925551,0.0732047 -0.0533504,0.0649646 -0.0966811,0.151283 -0.120555,0.207071 -0.047126,0.110122 -0.0815236,0.231335 -0.104567,0.355185 -0.0254685,0.136862 -0.0372087,0.276634 -0.0370551,0.408252 0.000259843,0.222173 0.0376693,0.509429 0.154606,0.728122 0.0807756,0.151063 0.20074,0.268579 0.374843,0.303398 0.183902,0.0367835 0.372193,0.0875039 0.558012,0.137559 0.0872165,0.0234921 0.174008,0.046878 0.229882,0.0612323 0.183346,0.0471142 0.369854,0.0933661 0.562567,0.137657 0.188909,0.0434173 0.37752,0.0833543 0.565429,0.117906 0.189677,0.034878 0.576957,0.100102 0.950535,0.112154 0.357622,0.0115354 0.700268,-0.0234252 0.822894,-0.178421 0.0179173,-0.0226457 0.0297283,-0.0486929 0.0371732,-0.0766142 0.00803937,-0.0301378 0.0110315,-0.0632795 0.0110315,-0.0973661 0,-0.165169 -0.0531063,-0.349587 -0.132854,-0.527972 -0.0990709,-0.221602 -0.238665,-0.432728 -0.369898,-0.587661 -0.112264,-0.132543 -0.247138,-0.262047 -0.397154,-0.364909 -0.126437,-0.0866929 -0.263114,-0.154323 -0.40515,-0.188409l-2.58106 -0.619457zm-0.0106732 -0.161563c0.016063,0.00046063 0.0318228,0.00279134 0.0475472,0.00656299l2.58106 0.619457c0.163169,0.0391575 0.317449,0.114972 0.458276,0.211535 0.162835,0.11165 0.308402,0.251248 0.429028,0.393657 0.139437,0.164618 0.287953,0.389374 0.393646,0.625787 0.088378,0.197693 0.147232,0.404303 0.147232,0.592972 0,0.0459882 -0.00451575,0.0924961 -0.0166535,0.137988 -0.0127244,0.0477087 -0.0337756,0.093315 -0.0665512,0.13474 -0.161409,0.20402 -0.552232,0.251976 -0.952894,0.239051 -0.384693,-0.0124094 -0.780567,-0.0790354 -0.974283,-0.114657 -0.193028,-0.0354921 -0.383559,-0.0757756 -0.572303,-0.119157 -0.184929,-0.0425 -0.374622,-0.0896417 -0.566323,-0.138902 -0.0964882,-0.0247913 -0.163921,-0.0429606 -0.231756,-0.0612323 -0.182268,-0.0490984 -0.366961,-0.0988504 -0.548012,-0.135063 -0.227815,-0.045563 -0.38222,-0.194531 -0.484213,-0.385272 -0.131134,-0.245244 -0.173075,-0.560744 -0.173362,-0.803122 -0.000165354,-0.141244 0.0123701,-0.290886 0.0395591,-0.437 0.0252047,-0.135457 0.0628858,-0.268173 0.114567,-0.388941 0.0277677,-0.0648898 0.0789843,-0.16628 0.144303,-0.245819 0.0507559,-0.0617992 0.111126,-0.111543 0.179429,-0.127575 0.0170157,-0.00399213 0.0342008,-0.00551181 0.0517008,-0.00501181z"/>
   <g>
    <path id="_625032656" class="fil1" d="M2.02941 2.14496c0.0324449,-0.0298543 0.0345433,-0.0803701 0.00468898,-0.112815 -0.0298543,-0.0324449 -0.0803701,-0.0345433 -0.112815,-0.00468898l-0.747504 0.687705c-0.0324449,0.0298543 -0.0345433,0.0803701 -0.00468898,0.112815 0.0298543,0.0324449 0.0803701,0.0345433 0.112815,0.00468898l0.747504 -0.687705z"/>
    <path id="_625032176" class="fil1" d="M2.53699 2.26679c0.0324449,-0.0298543 0.0345433,-0.0803701 0.00468898,-0.112815 -0.0298543,-0.0324449 -0.0803701,-0.0345433 -0.112815,-0.00468898l-1.26902 1.16749c-0.0324449,0.0298543 -0.0345433,0.0803701 -0.00468898,0.112815 0.0298543,0.0324449 0.0803701,0.0345433 0.112815,0.00468898l1.26902 -1.16749z"/>
    <path id="_625032800" class="fil1" d="M3.04458 2.38861c0.0324449,-0.0298543 0.0345433,-0.0803701 0.00468898,-0.112815 -0.0298543,-0.0324449 -0.0803701,-0.0345433 -0.112815,-0.00468898l-1.65205 1.51988c-0.0324449,0.0298543 -0.0345433,0.0803701 -0.00468898,0.112815 0.0298543,0.0324449 0.0803701,0.0345433 0.112815,0.00468898l1.65205 -1.51988z"/>
    <path id="_625032200" class="fil1" d="M3.55217 2.51043c0.0324449,-0.0298543 0.0345433,-0.0803701 0.00468898,-0.112815 -0.0298543,-0.0324449 -0.0803701,-0.0345433 -0.112815,-0.00468898l-1.87849 1.72821c-0.0324449,0.0298543 -0.0345433,0.0803701 -0.00468898,0.112815 0.0298543,0.0324449 0.0803701,0.0345433 0.112815,0.00468898l1.87849 -1.72821z"/>
    <path id="_625032152" class="fil1" d="M4.05975 2.63225c0.0324449,-0.0298543 0.0345433,-0.0803701 0.00468898,-0.112815 -0.0298543,-0.0324449 -0.0803701,-0.0345433 -0.112815,-0.00468898l-1.89686 1.74511c-0.0324449,0.0298543 -0.0345433,0.0803701 -0.00468898,0.112815 0.0298543,0.0324449 0.0803701,0.0345433 0.112815,0.00468898l1.89686 -1.74511z"/>
    <path id="_625032104" class="fil1" d="M4.5437 2.77581c0.0324449,-0.0298543 0.0345433,-0.0803701 0.00468898,-0.112815 -0.0298543,-0.0324449 -0.0803701,-0.0345433 -0.112815,-0.00468898l-1.88382 1.73311c-0.0324449,0.0298543 -0.0345433,0.0803701 -0.00468898,0.112815 0.0298543,0.0324449 0.0803701,0.0345433 0.112815,0.00468898l1.88382 -1.73311z"/>
    <path id="_625031744" class="fil1" d="M4.91414 3.02381c0.0324449,-0.0298543 0.0345433,-0.0803701 0.00468898,-0.112815 -0.0298543,-0.0324449 -0.0803701,-0.0345433 -0.112815,-0.00468898l-1.74893 1.60901c-0.0324449,0.0298543 -0.0345433,0.0803701 -0.00468898,0.112815 0.0298543,0.0324449 0.0803701,0.0345433 0.112815,0.00468898l1.74893 -1.60901z"/>
    <path id="_625031624" class="fil1" d="M5.2124 3.33822c0.0324449,-0.0298543 0.0345433,-0.0803701 0.00468898,-0.112815 -0.0298543,-0.0324449 -0.0803701,-0.0345433 -0.112815,-0.00468898l-1.52744 1.40524c-0.0324449,0.0298543 -0.0345433,0.0803701 -0.00468898,0.112815 0.0298543,0.0324449 0.0803701,0.0345433 0.112815,0.00468898l1.52744 -1.40524z"/>
    <path id="_625031600" class="fil1" d="M5.45387 3.70486c0.0324449,-0.0298543 0.0345433,-0.0803701 0.00468898,-0.112815 -0.0298543,-0.0324449 -0.0803701,-0.0345433 -0.112815,-0.00468898l-1.2238 1.12589c-0.0324449,0.0298543 -0.0345433,0.0803701 -0.00468898,0.112815 0.0298543,0.0324449 0.0803701,0.0345433 0.112815,0.00468898l1.2238 -1.12589z"/>
    <path id="_625031936" class="fil1" d="M5.63278 4.12906c0.0324449,-0.0298543 0.0345433,-0.0803701 0.00468898,-0.112815 -0.0298543,-0.0324449 -0.0803701,-0.0345433 -0.112815,-0.00468898l-0.809398 0.744646c-0.0324449,0.0298543 -0.0345433,0.0803701 -0.00468898,0.112815 0.0298543,0.0324449 0.0803701,0.0345433 0.112815,0.00468898l0.809398 -0.744646z"/>
   </g>
  </g>
  <path class="fil0" d="M1.36021 2.54365l0.450984 -0.414902 -0.15065 -0.0361575c-0.00529528,-0.00126772 -0.0103228,-0.00205118 -0.0150512,-0.00218504 -0.00329134,-9.44882e-005 -0.00694882,0.000291339 -0.0110709,0.00125591 -0.0296693,0.00696457 -0.0619803,0.0359803 -0.0925551,0.0732047 -0.0533504,0.0649646 -0.0966811,0.151283 -0.120555,0.207071 -0.0234646,0.0548346 -0.0437756,0.112421 -0.0611024,0.171713z"/>
  <path class="fil0" d="M1.99824 2.17363l-0.695764 0.640102c-0.0156142,0.108665 -0.0229134,0.217693 -0.0227913,0.321634 2.75591e-005,0.0226929 0.000440945,0.046063 0.0012874,0.0699685l1.0378 -0.954776 -0.320535 -0.0769291z"/>
  <path class="fil0" d="M2.50583 2.29546l-1.20782 1.11119c0.0139331,0.102701 0.0366654,0.207858 0.0710591,0.306445l1.45729 -1.3407 -0.320531 -0.0769291z"/>
  <path class="fil0" d="M3.01341 2.41728l-1.57675 1.45061c0.0453228,0.0836024 0.102799,0.156689 0.174992,0.210827l1.7223 -1.58451 -0.320539 -0.0769291z"/>
  <path class="fil0" d="M3.521 2.5391l-1.75713 1.61655c0.0146654,0.00437795 0.029748,0.0081378 0.0452598,0.0112402 0.0917047,0.0183425 0.1845,0.0401496 0.277535,0.0636142l1.75486 -1.61448 -0.320531 -0.0769291z"/>
  <path class="fil0" d="M4.02859 2.66092l-1.75819 1.61754c0.0322992,0.00863386 0.0645591,0.0173268 0.096748,0.0259961 0.0804724,0.0216772 0.160583,0.0432598 0.216378,0.0577441l1.76046 -1.61962c-0.0337638,-0.0120118 -0.0679173,-0.0222598 -0.102382,-0.0305315l-0.21302 -0.051126z"/>
  <path class="fil0" d="M4.50313 2.81315l-1.7348 1.59602c0.105102,0.0263189 0.21152,0.052252 0.319807,0.0775984l1.6506 -1.51856c-0.0299528,-0.0236063 -0.0606378,-0.0462598 -0.0919803,-0.067752 -0.0465669,-0.0319291 -0.0945236,-0.0612717 -0.143626,-0.0873071z"/>
  <path class="fil0" d="M4.86074 3.07294l-1.58364 1.45695c0.109921,0.0243937 0.219717,0.0474724 0.329299,0.0688622l1.44268 -1.32726c-0.00172441,-0.00205118 -0.00344882,-0.00409449 -0.00516929,-0.00612598 -0.0557795,-0.0658543 -0.117142,-0.130961 -0.183169,-0.192421z"/>
  <path class="fil0" d="M5.14776 3.39769l-1.34509 1.23748c0.0929173,0.016248 0.212787,0.0356575 0.346492,0.0530472l1.15013 -1.05812c-0.0478189,-0.0824882 -0.0993268,-0.160894 -0.151528,-0.232413z"/>
  <path class="fil0" d="M5.37725 3.77535l-1.01831 0.936843c0.103421,0.0100787 0.210571,0.0177835 0.316618,0.0212047 0.0210039,0.000677165 0.0419567,0.00119291 0.0628189,0.00153543l0.749496 -0.689539c-0.0204843,-0.064126 -0.0455748,-0.128634 -0.0740709,-0.19237 -0.0116496,-0.0260591 -0.0238622,-0.0519764 -0.0365551,-0.0776732z"/>
  <path class="fil0" d="M5.532 4.22178l-0.552173 0.508c0.234661,-0.0154921 0.431803,-0.0650591 0.51863,-0.174807 0.0179173,-0.0226457 0.0297283,-0.0486929 0.0371732,-0.0766142 0.00803937,-0.0301378 0.0110315,-0.0632795 0.0110315,-0.0973661 0,-0.0514567 -0.00515354,-0.104783 -0.0146614,-0.159213z"/>
 </g>
 <rect class="fil2" width="6.82666" height="6.82666"/>
</svg>
